<svg xmlns="http://www.w3.org/2000/svg" width="53.587" height="53.582" viewBox="0 0 53.587 53.582">
  <path id="telephone-fill" d="M6.314,1.709a5.844,5.844,0,0,1,8.741.546l6.012,7.723a5.842,5.842,0,0,1,1.055,5L20.29,22.316a2.271,2.271,0,0,0,.6,2.153L29.115,32.7a2.271,2.271,0,0,0,2.157.6L38.6,31.462a5.844,5.844,0,0,1,5,1.055l7.723,6.008a5.842,5.842,0,0,1,.546,8.744l-3.463,3.463a9.3,9.3,0,0,1-9.635,2.351A62.407,62.407,0,0,1,15.3,38.281,62.405,62.405,0,0,1,.5,14.807,9.309,9.309,0,0,1,2.851,5.172Z" transform="translate(0 -0.001)" fill="#6900ff" fill-rule="evenodd"/>
</svg>
