<?xml version="1.0" encoding="UTF-8"?><svg xmlns="http://www.w3.org/2000/svg" viewBox="0 0 860.84 576.61"><defs><style>.cls-1{fill:#ffffff00;}.cls-2{fill:#fff;}.cls-3{fill:#6900ff;}</style></defs><g id="Pozadí"><rect id="Pozadí_2" class="cls-1" x="-319.58" y="-461.69" width="1500" height="1500"/></g><g id="Varianty_Loga"><g id="Varianta_2"><path class="cls-2" d="m331.95,425.1v-180.03l87.84-34.34v28.12l-64.07,25.78v47.84l57.86-24.39v28.19l-57.86,25.06v72.8l-23.77,10.99Z"/><path class="cls-2" d="m439.58,375.36v-172.37l21.8-8.52v170.82l-21.8,10.07Z"/><path class="cls-2" d="m527.31,337.72c-5.99,2.77-11.74,4.43-17.25,4.95-5.54.53-10.47-.39-14.77-2.75-4.31-2.37-7.72-6.23-10.22-11.59-2.5-5.37-3.75-12.51-3.75-21.4,0-.99.03-1.99.08-3,.05-1.01.08-1.76.08-2.26l21.21-9.32c0,.33-.03.96-.08,1.87-.06.93-.08,1.71-.08,2.36,0,5.39,1.02,9.54,3.05,12.46,2.02,2.92,4.95,4.54,8.77,4.85,3.81.31,8.28-.7,13.43-3.02,3.45-1.56,6.5-3.26,9.16-5.1,2.65-1.84,4.92-3.79,6.84-5.85,1.91-2.07,3.48-4.21,4.72-6.45,1.23-2.23,2.13-4.51,2.7-6.84.56-2.33.85-4.69.85-7.09,0-4.63-.92-8.06-2.77-10.29-1.85-2.23-4.35-3.7-7.5-4.41-3.16-.71-6.75-1.05-10.76-1-4.03.04-8.18.1-12.44.15-4.28.06-8.48-.29-12.58-1.06-4.12-.77-7.82-2.26-11.09-4.47-3.29-2.21-5.91-5.66-7.86-10.34-1.96-4.69-2.93-10.9-2.93-18.63s1.11-15.25,3.34-22.06c2.22-6.8,5.35-12.92,9.39-18.36,4.03-5.42,8.7-10.11,14.03-14.07,5.3-3.94,11.05-7.11,17.25-9.53,5.74-2.24,11.12-3.41,16.14-3.53,4.99-.11,9.38,1.04,13.17,3.46,3.77,2.41,6.72,6.17,8.85,11.27,2.12,5.1,3.19,11.76,3.19,20.01v2.85l-19.72,8.12v-2.4c0-4.63-.9-8.19-2.7-10.66-1.8-2.47-4.33-3.93-7.59-4.39-3.27-.45-7.1.2-11.49,1.96-4.72,1.9-8.78,4.21-12.16,6.95-3.39,2.74-6,5.82-7.8,9.24-1.81,3.42-2.72,7.09-2.72,11s.96,7.11,2.88,9.08c1.92,1.98,4.49,3.26,7.72,3.87,3.22.6,6.86.87,10.9.79,4.03-.07,8.15-.07,12.35,0,4.19.08,8.27.48,12.23,1.21,3.94.73,7.47,2.21,10.57,4.47,3.1,2.25,5.55,5.6,7.37,10.05,1.82,4.44,2.72,10.31,2.72,17.59,0,12.19-1.89,22.87-5.68,32.03-3.81,9.21-9.05,17.02-15.76,23.46-6.75,6.48-14.49,11.75-23.26,15.81Z"/><path class="cls-2" d="m590.16,305.77v-161.64l50.06-19.57c7.19-2.81,13.09-3.06,17.72-.76,4.61,2.29,8.07,6.7,10.38,13.2,2.31,6.5,3.46,14.89,3.46,25.19s-1.2,19.51-3.6,28.11c-2.41,8.62-6.01,16.06-10.81,22.32-4.82,6.3-10.87,11.04-18.15,14.22l-29.88,13.05v57.01l-19.18,8.86Zm19.18-91.81l29.31-12.47c4.74-2.02,8.4-5.83,10.99-11.45,2.58-5.6,3.88-12.36,3.88-20.3,0-5.34-.56-9.62-1.69-12.83s-2.77-5.37-4.94-6.49c-2.17-1.11-4.91-1.01-8.24.32l-29.31,11.8v51.4Z"/><path class="cls-2" d="m685.66,261.63V106.79l70.67-27.63v24.24l-53.07,21.36v37.84l47.43-19.92v24.31l-47.43,20.47v41.19l53.83-24.26v24.23l-71.44,33.02Z"/><path class="cls-2" d="m773.7,220.94V72.37l34-13.29c8.4-3.28,15.53-3.47,21.43-.58,5.86,2.87,10.35,8.96,13.49,18.23,3.13,9.25,4.69,22.09,4.69,38.52s-1.56,30.43-4.69,42.42c-3.14,12.03-7.63,21.98-13.49,29.85-5.89,7.92-13.03,13.82-21.43,17.7l-34,15.72Zm16.21-31.35l17.79-8.02c3.88-1.75,7.31-4.28,10.29-7.6,2.96-3.31,5.44-7.34,7.44-12.11,1.99-4.75,3.5-10.27,4.53-16.56,1.03-6.27,1.55-13.27,1.55-20.99v-4.42c0-7.86-.52-14.49-1.55-19.89-1.03-5.4-2.54-9.63-4.53-12.69-2-3.06-4.47-4.98-7.44-5.76-2.98-.78-6.4-.39-10.29,1.17l-17.79,7.16v99.71Z"/><path class="cls-3" d="m359.51,558.29c-6.29,3.28-11.65,4.6-16.07,3.97-4.44-.63-7.81-3.04-10.12-7.21-2.31-4.18-3.47-9.86-3.47-17.03v-2.6l15.04-7.6v3.1c0,5.75,1.25,9.5,3.73,11.27,2.48,1.77,5.96,1.5,10.42-.79,4.21-2.16,7.57-5.31,10.09-9.45,2.52-4.13,3.78-9.32,3.78-15.57,0-4.88-.69-8.26-2.07-10.12-1.38-1.87-3.19-2.75-5.44-2.65-2.26.1-4.7.8-7.32,2.11l-6.82,3.4v-17.19l7.18-3.53c2.38-1.17,4.55-2.86,6.49-5.08,1.94-2.2,3.48-4.89,4.62-8.07,1.14-3.17,1.71-6.75,1.71-10.73s-.51-6.74-1.54-8.64c-1.03-1.9-2.45-2.98-4.26-3.25-1.82-.27-3.88.15-6.19,1.25-2.47,1.18-4.66,2.83-6.58,4.95-1.92,2.12-3.4,4.67-4.44,7.64-1.04,2.97-1.56,6.35-1.56,10.14v2.76l-15.02,7.31v-4.33c0-6.58,1.18-12.89,3.53-18.92,2.35-6.02,5.6-11.33,9.75-15.94,4.13-4.59,8.83-8.13,14.09-10.61,5.39-2.55,10.11-3.54,14.17-3.02,4.04.53,7.19,2.62,9.46,6.3,2.26,3.67,3.39,8.95,3.39,15.85,0,4.52-.56,8.73-1.69,12.61-1.13,3.89-2.67,7.45-4.63,10.67-1.95,3.24-4.15,6.31-6.58,9.21v.68c4.16-.24,7.62,1.32,10.39,4.69,2.76,3.36,4.14,8.88,4.14,16.56,0,6.89-1.19,13.43-3.56,19.62-2.38,6.21-5.68,11.74-9.92,16.6-4.25,4.87-9.14,8.76-14.69,11.65Z"/><path class="cls-3" d="m401.93,534.19v-115.54l31.27-14.78c7.76-3.67,14.36-4.75,19.82-3.27,5.44,1.48,9.61,5.65,12.52,12.5,2.91,6.85,4.36,16.7,4.36,29.58s-1.45,24.05-4.36,33.83c-2.92,9.81-7.09,18.15-12.52,25.02-5.46,6.9-12.06,12.37-19.82,16.4l-31.27,16.25Zm14.88-26.32l16.39-8.39c3.59-1.84,6.75-4.23,9.51-7.19,2.74-2.95,5.04-6.4,6.89-10.37,1.84-3.96,3.24-8.47,4.2-13.52.95-5.04,1.43-10.58,1.43-16.62v-3.46c0-6.15-.48-11.27-1.43-15.36-.96-4.09-2.36-7.21-4.2-9.34-1.85-2.13-4.14-3.31-6.89-3.54-2.75-.22-5.92.52-9.51,2.24l-16.39,7.87v77.68Z"/><path class="cls-3" d="m505.95,480.14v-110.65l25.81-12.2c7.55-3.57,13.92-4.71,19.11-3.42,5.17,1.28,9.11,5.23,11.83,11.85,2.71,6.61,4.07,16.24,4.07,28.91s-1.35,23.37-4.07,32.72c-2.72,9.37-6.66,17.29-11.83,23.75-5.19,6.49-11.56,11.71-19.11,15.63l-25.81,13.41Zm8.32-15.25l17.18-8.85c4.2-2.16,7.97-4.87,11.32-8.13,3.34-3.25,6.19-7.14,8.57-11.68,2.37-4.53,4.16-9.73,5.37-15.61,1.22-5.87,1.82-12.54,1.82-20v-3.31c0-7.67-.61-13.87-1.82-18.59-1.21-4.72-2.99-8.19-5.32-10.38s-5.18-3.27-8.52-3.21c-3.35.07-7.15,1.11-11.42,3.15l-17.18,8.2v88.4Z"/><path class="cls-3" d="m581.31,440.97v-107.11l50.81-24.02v10.38l-43.02,20.53v36.1l38.84-19.16v10.55l-38.84,19.34v38.74l43.58-22.45v10.38l-51.38,26.7Z"/><path class="cls-3" d="m669.69,396.84c-3.36,1.75-6.63,2.95-9.83,3.61-3.2.66-6.05.42-8.52-.71-2.48-1.14-4.44-3.31-5.87-6.52-1.44-3.21-2.15-7.76-2.15-13.63v-1.44c0-.46.03-.95.09-1.49l7.37-3.73c0,.4-.02.97-.05,1.69s-.05,1.34-.05,1.84c0,4.44.82,7.73,2.46,9.87,1.64,2.14,3.86,3.21,6.66,3.22,2.8.02,5.94-.87,9.42-2.67,1.16-.6,2.54-1.44,4.16-2.52,1.61-1.07,3.24-2.42,4.91-4.02,1.66-1.6,3.18-3.43,4.57-5.49,1.38-2.05,2.51-4.37,3.38-6.95.87-2.57,1.3-5.45,1.3-8.63,0-3.67-.6-6.4-1.8-8.18-1.2-1.78-2.78-2.95-4.74-3.51-1.96-.56-4.22-.81-6.76-.73-2.56.07-5.17.23-7.86.46-2.7.24-5.32.28-7.87.14-2.56-.14-4.86-.77-6.91-1.87-2.05-1.11-3.68-2.96-4.89-5.55-1.21-2.59-1.82-6.21-1.82-10.87,0-4.05.5-7.98,1.5-11.8,1-3.81,2.52-7.39,4.57-10.74,2.05-3.34,4.64-6.41,7.79-9.21,3.14-2.78,6.84-5.19,11.12-7.21,3.23-1.52,6.23-2.39,9.01-2.61s5.22.34,7.32,1.68c2.1,1.34,3.73,3.48,4.9,6.44,1.17,2.96,1.75,6.91,1.75,11.86v1.79l-7.01,3.4v-2.53c0-3.68-.69-6.45-2.08-8.31-1.38-1.87-3.24-2.97-5.56-3.31-2.33-.33-4.99.21-7.97,1.63-4.09,1.95-7.46,4.23-10.1,6.85-2.65,2.62-4.62,5.43-5.92,8.42-1.3,2.99-1.95,5.95-1.95,8.87,0,3.43.62,5.98,1.86,7.64,1.24,1.67,2.87,2.73,4.9,3.19,2.03.46,4.31.65,6.86.55,2.54-.1,5.14-.25,7.82-.47,2.67-.22,5.26-.23,7.77-.03,2.5.21,4.75.88,6.76,2.01,2.01,1.13,3.59,2.99,4.75,5.58,1.16,2.58,1.74,6.2,1.74,10.85,0,7.03-1.06,13.3-3.18,18.85-2.12,5.55-5.05,10.34-8.77,14.36-3.74,4.03-8.1,7.35-13.09,9.95Z"/><path class="cls-3" d="m707.88,375.19v-101.16l6.95-3.29v100.83l-6.95,3.61Z"/><path class="cls-3" d="m756.8,351.49c-9.54,4.97-16.8,4.51-21.72-1.43-4.95-5.97-7.43-17.73-7.43-35.26,0-11.39,1.14-21.5,3.42-30.29,2.27-8.77,5.63-16.15,10.06-22.13,4.41-5.96,9.84-10.45,16.26-13.48,3.98-1.88,7.54-2.81,10.69-2.82,3.14,0,5.82.92,8.06,2.76,2.23,1.84,3.94,4.66,5.12,8.46,1.18,3.8,1.77,8.64,1.77,14.52l-6.6,3.23c0-4.66-.47-8.38-1.41-11.17-.94-2.78-2.27-4.79-3.99-6.02-1.72-1.22-3.75-1.71-6.09-1.46s-4.86,1.03-7.56,2.31c-3.49,1.66-6.62,3.9-9.4,6.72-2.78,2.82-5.17,6.34-7.17,10.53-2,4.21-3.52,9.11-4.55,14.7-1.03,5.6-1.55,11.99-1.55,19.17v3.06c0,9.61.89,16.93,2.67,21.94,1.77,5.01,4.3,8,7.57,8.98,3.26.98,7.15.3,11.66-2.03,4.77-2.46,8.61-5.57,11.53-9.32,2.92-3.74,5.03-8.26,6.36-13.56,1.33-5.29,1.99-11.51,1.99-18.64v-2.14l-21.15,10.57v-9.66l27.66-13.7v50.8l-5.03,2.61-.83-12.7c-1.38,4.23-3.13,7.99-5.26,11.29-2.13,3.3-4.5,6.13-7.09,8.48-2.6,2.35-5.27,4.25-8.02,5.68Z"/><path class="cls-3" d="m797.32,328.71v-96.95l6.23-2.94,27.91,52.69c.31.49.69,1.18,1.14,2.06.44.89.89,1.8,1.33,2.73.44.93.82,1.78,1.14,2.55l.39-.2v-74.9l6-2.84v94.88l-5.37,2.79-28.35-53.33c-.38-.75-.97-1.94-1.77-3.57-.8-1.63-1.5-3.01-2.09-4.13l-.32.16v77.78l-6.23,3.24Z"/><g id="Logomark"><g id="F_D"><g id="F"><polygon class="cls-2" points="299.71 247.17 242.77 304.91 35.47 217.07 35.47 143.56 299.71 247.17"/><polygon class="cls-2" points="224.17 324.04 170.47 378.5 132.24 360.68 132.24 417.26 82.87 467.32 82.87 262.65 224.17 324.04"/></g><polygon id="D" class="cls-3" points="299.71 356.86 299.71 529.43 264.43 561.88 122.42 487.93 172.93 437.18 243.35 471.65 243.35 412.47 212.05 397.88 267.01 342.66 299.71 356.86"/></g></g><polygon class="cls-2" points="825.02 24.1 315.76 211.54 13.53 100.6 50.99 89.68 315.76 186.87 784.9 14.2 825.02 24.1"/></g></g></svg>