<?xml version="1.0" encoding="utf-8"?>
<!-- Generator: Adobe Illustrator 27.5.0, SVG Export Plug-In . SVG Version: 6.00 Build 0)  -->
<svg version="1.1" id="Vrstva_1" xmlns="http://www.w3.org/2000/svg" xmlns:xlink="http://www.w3.org/1999/xlink" x="0px" y="0px"
	 viewBox="0 0 88 104" style="enable-background:new 0 0 88 104;" xml:space="preserve">
<style type="text/css">
	.st0{fill:#6900FF;}
	.st1{fill:none;stroke:#FFFFFF;stroke-miterlimit:10;}
	.st2{fill:#FFFFFF;}
</style>
<path class="st0" d="M85.8,68.9c0,0.4,0.5,0.7,1,0.7c0.5,0,1-0.3,1-0.7c0-0.4-0.5-0.7-1-0.7C86.3,68.2,85.8,68.5,85.8,68.9z"/>
<path class="st0" d="M80.8,68.9c0-0.4-0.5-0.7-1-0.7c-0.7,0-1.2,0.3-1.2,0.7c0,0.4,0.5,0.7,1.2,0.7S80.8,69.1,80.8,68.9z"/>
<path class="st0" d="M78.6,75.9c0,0.4,0.5,0.7,1.2,0.7s1-0.3,1-0.7c0-0.4-0.5-0.7-1-0.7C79.1,75.3,78.6,75.7,78.6,75.9z"/>
<path class="st0" d="M73.7,68.9c0-0.4-0.5-0.7-1-0.7c-0.7,0-1,0.3-1,0.7c0,0.4,0.5,0.7,1,0.7C73.2,69.5,73.7,69.1,73.7,68.9z"/>
<path class="st0" d="M73.7,75.9c0-0.4-0.5-0.7-1-0.7c-0.7,0-1,0.3-1,0.7c0,0.4,0.5,0.7,1,0.7C73.2,76.6,73.7,76.3,73.7,75.9z"/>
<path class="st0" d="M71.5,83.1c0,0.4,0.5,0.7,1,0.7c0.7,0,1-0.3,1-0.7c0-0.4-0.5-0.7-1-0.7C72,82.5,71.5,82.7,71.5,83.1z"/>
<path class="st0" d="M66.6,68.9c0-0.4-0.5-0.7-1-0.7c-0.7,0-1,0.3-1,0.7c0,0.4,0.5,0.7,1,0.7C66,69.5,66.6,69.1,66.6,68.9z"/>
<path class="st0" d="M66.6,75.9c0-0.4-0.5-0.7-1-0.7c-0.7,0-1,0.3-1,0.7c0,0.4,0.5,0.7,1,0.7C66,76.6,66.6,76.3,66.6,75.9z"/>
<path class="st0" d="M66.6,83.1c0-0.4-0.5-0.7-1-0.7c-0.7,0-1,0.3-1,0.7c0,0.4,0.5,0.7,1,0.7C66,83.8,66.6,83.5,66.6,83.1z"/>
<path class="st0" d="M64.3,90.3c0,0.4,0.5,0.7,1,0.7c0.7,0,1-0.3,1-0.7c0-0.4-0.5-0.7-1-0.7C64.9,89.6,64.3,89.9,64.3,90.3z"/>
<path class="st0" d="M59.4,68.9c0-0.4-0.5-0.7-1-0.7c-0.5,0-1,0.3-1,0.7c0,0.4,0.5,0.7,1,0.7C58.8,69.5,59.4,69.1,59.4,68.9z"/>
<path class="st0" d="M59.4,75.9c0-0.4-0.5-0.7-1-0.7c-0.5,0-1,0.3-1,0.7c0,0.4,0.5,0.7,1,0.7C58.8,76.6,59.4,76.3,59.4,75.9z"/>
<path class="st0" d="M59.4,83.1c0-0.4-0.5-0.7-1-0.7c-0.5,0-1,0.3-1,0.7c0,0.4,0.5,0.7,1,0.7C58.8,83.8,59.4,83.5,59.4,83.1z"/>
<path class="st0" d="M59.4,90.3c0-0.4-0.5-0.7-1-0.7c-0.5,0-1,0.3-1,0.7c0,0.4,0.5,0.7,1,0.7C58.8,90.9,59.4,90.6,59.4,90.3z"/>
<path class="st0" d="M57.1,97.3c0,0.4,0.5,0.7,1,0.7c0.5,0,1-0.3,1-0.7c0-0.4-0.5-0.7-1-0.7C57.7,96.7,57.1,97.1,57.1,97.3z"/>
<path class="st0" d="M52.3,68.9c0-0.4-0.5-0.7-1-0.7c-0.7,0-1,0.3-1,0.7c0,0.4,0.5,0.7,1,0.7C51.8,69.5,52.3,69.1,52.3,68.9z"/>
<path class="st0" d="M52.3,75.9c0-0.4-0.5-0.7-1-0.7c-0.7,0-1,0.3-1,0.7c0,0.4,0.5,0.7,1,0.7C51.8,76.6,52.3,76.3,52.3,75.9z"/>
<path class="st0" d="M52.3,83.1c0-0.4-0.5-0.7-1-0.7c-0.7,0-1,0.3-1,0.7c0,0.4,0.5,0.7,1,0.7C51.8,83.8,52.3,83.5,52.3,83.1z"/>
<path class="st0" d="M52.3,90.3c0-0.4-0.5-0.7-1-0.7c-0.7,0-1,0.3-1,0.7c0,0.4,0.5,0.7,1,0.7C51.8,90.9,52.3,90.6,52.3,90.3z"/>
<path class="st0" d="M50.1,97.3c0,0.4,0.5,0.7,1,0.7c0.7,0,1-0.3,1-0.7c0-0.4-0.5-0.7-1-0.7C50.6,96.7,50.1,97.1,50.1,97.3z"/>
<path class="st0" d="M45.1,68.9c0-0.4-0.5-0.7-1.2-0.7c-0.7,0-1,0.3-1,0.7c0,0.4,0.5,0.7,1,0.7C44.6,69.5,45.1,69.1,45.1,68.9z"/>
<path class="st0" d="M45.1,75.9c0-0.4-0.5-0.7-1.2-0.7c-0.7,0-1,0.3-1,0.7c0,0.4,0.5,0.7,1,0.7C44.6,76.6,45.1,76.3,45.1,75.9z"/>
<path class="st0" d="M45.1,83.1c0-0.4-0.5-0.7-1.2-0.7c-0.7,0-1,0.3-1,0.7c0,0.4,0.5,0.7,1,0.7C44.6,83.8,45.1,83.5,45.1,83.1z"/>
<path class="st0" d="M45.1,90.3c0-0.4-0.5-0.7-1.2-0.7c-0.7,0-1,0.3-1,0.7c0,0.4,0.5,0.7,1,0.7C44.6,90.9,45.1,90.6,45.1,90.3z"/>
<path class="st0" d="M42.9,97.3c0,0.4,0.5,0.7,1,0.7c0.7,0,1.2-0.3,1.2-0.7c0-0.4-0.5-0.7-1.2-0.7C43.4,96.7,42.9,97.1,42.9,97.3z"
	/>
<path class="st0" d="M37.9,68.9c0-0.4-0.5-0.7-1.2-0.7s-1,0.3-1,0.7c0,0.4,0.5,0.7,1,0.7C37.5,69.5,37.9,69.1,37.9,68.9z"/>
<path class="st0" d="M37.9,75.9c0-0.4-0.5-0.7-1.2-0.7s-1,0.3-1,0.7c0,0.4,0.5,0.7,1,0.7C37.5,76.6,37.9,76.3,37.9,75.9z"/>
<path class="st0" d="M37.9,83.1c0-0.4-0.5-0.7-1.2-0.7s-1,0.3-1,0.7c0,0.4,0.5,0.7,1,0.7C37.5,83.8,37.9,83.5,37.9,83.1z"/>
<path class="st0" d="M37.9,90.3c0-0.4-0.5-0.7-1.2-0.7s-1,0.3-1,0.7c0,0.4,0.5,0.7,1,0.7C37.5,90.9,37.9,90.6,37.9,90.3z"/>
<path class="st0" d="M35.7,97.3c0,0.4,0.5,0.7,1,0.7c0.7,0,1.2-0.3,1.2-0.7c0-0.4-0.5-0.7-1.2-0.7C36.2,96.7,35.7,97.1,35.7,97.3z"
	/>
<path class="st0" d="M30.9,68.9c0-0.4-0.5-0.7-1-0.7c-0.5,0-1,0.3-1,0.7c0,0.4,0.5,0.7,1,0.7C30.3,69.5,30.9,69.1,30.9,68.9z"/>
<path class="st0" d="M30.9,75.9c0-0.4-0.5-0.7-1-0.7c-0.5,0-1,0.3-1,0.7c0,0.4,0.5,0.7,1,0.7C30.3,76.6,30.9,76.3,30.9,75.9z"/>
<path class="st0" d="M30.9,83.1c0-0.4-0.5-0.7-1-0.7c-0.5,0-1,0.3-1,0.7c0,0.4,0.5,0.7,1,0.7C30.3,83.8,30.9,83.5,30.9,83.1z"/>
<path class="st0" d="M30.9,90.3c0-0.4-0.5-0.7-1-0.7c-0.5,0-1,0.3-1,0.7c0,0.4,0.5,0.7,1,0.7C30.3,90.9,30.9,90.6,30.9,90.3z"/>
<path class="st0" d="M29.7,98c0.6,0,1-0.3,1-0.7s-0.5-0.7-1-0.7c-0.6,0-1,0.3-1,0.7S29.1,98,29.7,98z"/>
<path class="st0" d="M23.7,75.9c0-0.4-0.5-0.7-1-0.7c-0.5,0-1,0.3-1,0.7c0,0.4,0.5,0.7,1,0.7C23.1,76.6,23.7,76.3,23.7,75.9z"/>
<path class="st0" d="M23.7,83.1c0-0.4-0.5-0.7-1-0.7c-0.5,0-1,0.3-1,0.7c0,0.4,0.5,0.7,1,0.7C23.1,83.8,23.7,83.5,23.7,83.1z"/>
<path class="st0" d="M23.7,90.3c0-0.4-0.5-0.7-1-0.7c-0.5,0-1,0.3-1,0.7c0,0.4,0.5,0.7,1,0.7C23.1,90.9,23.7,90.6,23.7,90.3z"/>
<path class="st0" d="M22.6,98c0.6,0,1-0.3,1-0.7s-0.5-0.7-1-0.7s-1,0.3-1,0.7S22,98,22.6,98z"/>
<path class="st0" d="M16.5,83.1c0-0.4-0.5-0.7-1-0.7c-0.7,0-1.2,0.3-1.2,0.7c0,0.4,0.5,0.7,1.2,0.7S16.5,83.5,16.5,83.1z"/>
<path class="st0" d="M16.5,90.3c0-0.4-0.5-0.7-1-0.7c-0.7,0-1.2,0.3-1.2,0.7c0,0.4,0.5,0.7,1.2,0.7S16.5,90.6,16.5,90.3z"/>
<path class="st0" d="M14.3,97.3c0,0.4,0.5,0.7,1.2,0.7s1-0.3,1-0.7c0-0.4-0.5-0.7-1-0.7C14.8,96.7,14.3,97.1,14.3,97.3z"/>
<path class="st0" d="M9.4,90.3c0-0.4-0.5-0.7-1-0.7c-0.7,0-1,0.3-1,0.7c0,0.4,0.5,0.7,1,0.7S9.4,90.6,9.4,90.3z"/>
<path class="st0" d="M7.2,97.3c0,0.4,0.5,0.7,1,0.7c0.7,0,1-0.3,1-0.7c0-0.4-0.5-0.7-1-0.7C7.6,96.7,7.2,97.1,7.2,97.3z"/>
<path class="st0" d="M1,98c0.7,0,1-0.3,1-0.7c0-0.4-0.5-0.7-1-0.7c-0.5,0-1,0.4-1,0.7C0,97.6,0.5,98,1,98z"/>
<path class="st1" d="M83.9,52v-7.4H29.8L4.1,70v7.6h54.1L83.9,52z"/>
<path class="st1" d="M28.2,5.7L9.4,24.5v31.3h46l18.7-18.7V5.7H28.2z"/>
<path class="st2" d="M55.8,44.1v-5.4H40.4v-7.2H24.8v-6.8H9.4v31.1h46l18.7-18.7V25.9L55.8,44.1z"/>
</svg>
