<svg xmlns="http://www.w3.org/2000/svg" width="55.081" height="58.404" viewBox="0 0 55.081 58.404">
  <g id="svgexport-9" transform="translate(0 0.5)">
    <path id="Path_25" data-name="Path 25" d="M85.8,68.639c0,.251.314.439.627.439s.627-.188.627-.439-.314-.439-.627-.439S85.8,68.388,85.8,68.639Z" transform="translate(-31.974 -28.991)" fill="#6900ff"/>
    <path id="Path_26" data-name="Path 26" d="M79.98,68.639c0-.251-.314-.439-.627-.439-.439,0-.753.188-.753.439s.314.439.753.439A.584.584,0,0,0,79.98,68.639Z" transform="translate(-29.291 -28.991)" fill="#6900ff"/>
    <path id="Path_27" data-name="Path 27" d="M78.6,75.639c0,.251.314.439.753.439s.627-.188.627-.439-.314-.439-.627-.439C78.914,75.263,78.6,75.514,78.6,75.639Z" transform="translate(-29.291 -31.599)" fill="#6900ff"/>
    <path id="Path_28" data-name="Path 28" d="M72.955,68.639c0-.251-.314-.439-.627-.439-.439,0-.627.188-.627.439s.314.439.627.439C72.641,69.016,72.955,68.765,72.955,68.639Z" transform="translate(-26.719 -28.991)" fill="#6900ff"/>
    <path id="Path_29" data-name="Path 29" d="M72.955,75.639c0-.251-.314-.439-.627-.439-.439,0-.627.188-.627.439s.314.439.627.439S72.955,75.89,72.955,75.639Z" transform="translate(-26.719 -31.599)" fill="#6900ff"/>
    <path id="Path_30" data-name="Path 30" d="M71.5,82.839c0,.251.314.439.627.439.439,0,.627-.188.627-.439s-.314-.439-.627-.439C71.814,82.463,71.5,82.588,71.5,82.839Z" transform="translate(-26.645 -34.282)" fill="#6900ff"/>
    <path id="Path_31" data-name="Path 31" d="M65.855,68.639c0-.251-.314-.439-.627-.439-.439,0-.627.188-.627.439s.314.439.627.439C65.478,69.016,65.855,68.765,65.855,68.639Z" transform="translate(-24.073 -28.991)" fill="#6900ff"/>
    <path id="Path_32" data-name="Path 32" d="M65.855,75.639c0-.251-.314-.439-.627-.439-.439,0-.627.188-.627.439s.314.439.627.439C65.478,76.078,65.855,75.89,65.855,75.639Z" transform="translate(-24.073 -31.599)" fill="#6900ff"/>
    <path id="Path_33" data-name="Path 33" d="M65.855,82.839c0-.251-.314-.439-.627-.439-.439,0-.627.188-.627.439s.314.439.627.439C65.478,83.278,65.855,83.09,65.855,82.839Z" transform="translate(-24.073 -34.282)" fill="#6900ff"/>
    <path id="Path_34" data-name="Path 34" d="M64.3,90.039c0,.251.314.439.627.439.439,0,.627-.188.627-.439s-.314-.439-.627-.439C64.676,89.6,64.3,89.788,64.3,90.039Z" transform="translate(-23.962 -36.966)" fill="#6900ff"/>
    <path id="Path_35" data-name="Path 35" d="M58.655,68.639c0-.251-.314-.439-.627-.439s-.627.188-.627.439.314.439.627.439C58.278,69.016,58.655,68.765,58.655,68.639Z" transform="translate(-21.39 -28.991)" fill="#6900ff"/>
    <path id="Path_36" data-name="Path 36" d="M58.655,75.639c0-.251-.314-.439-.627-.439s-.627.188-.627.439.314.439.627.439C58.278,76.078,58.655,75.89,58.655,75.639Z" transform="translate(-21.39 -31.599)" fill="#6900ff"/>
    <path id="Path_37" data-name="Path 37" d="M58.655,82.839c0-.251-.314-.439-.627-.439s-.627.188-.627.439.314.439.627.439C58.278,83.278,58.655,83.09,58.655,82.839Z" transform="translate(-21.39 -34.282)" fill="#6900ff"/>
    <path id="Path_38" data-name="Path 38" d="M58.655,90.039c0-.251-.314-.439-.627-.439s-.627.188-.627.439.314.439.627.439C58.278,90.416,58.655,90.227,58.655,90.039Z" transform="translate(-21.39 -36.966)" fill="#6900ff"/>
    <path id="Path_39" data-name="Path 39" d="M57.1,97.039c0,.251.314.439.627.439s.627-.188.627-.439-.314-.439-.627-.439C57.476,96.663,57.1,96.914,57.1,97.039Z" transform="translate(-21.278 -39.574)" fill="#6900ff"/>
    <path id="Path_40" data-name="Path 40" d="M51.555,68.639c0-.251-.314-.439-.627-.439-.439,0-.627.188-.627.439s.314.439.627.439C51.241,69.016,51.555,68.765,51.555,68.639Z" transform="translate(-18.744 -28.991)" fill="#6900ff"/>
    <path id="Path_41" data-name="Path 41" d="M51.555,75.639c0-.251-.314-.439-.627-.439-.439,0-.627.188-.627.439s.314.439.627.439S51.555,75.89,51.555,75.639Z" transform="translate(-18.744 -31.599)" fill="#6900ff"/>
    <path id="Path_42" data-name="Path 42" d="M51.555,82.839c0-.251-.314-.439-.627-.439-.439,0-.627.188-.627.439s.314.439.627.439S51.555,83.09,51.555,82.839Z" transform="translate(-18.744 -34.282)" fill="#6900ff"/>
    <path id="Path_43" data-name="Path 43" d="M51.555,90.039c0-.251-.314-.439-.627-.439-.439,0-.627.188-.627.439s.314.439.627.439C51.241,90.416,51.555,90.227,51.555,90.039Z" transform="translate(-18.744 -36.966)" fill="#6900ff"/>
    <path id="Path_44" data-name="Path 44" d="M50.1,97.039c0,.251.314.439.627.439.439,0,.627-.188.627-.439s-.314-.439-.627-.439C50.414,96.663,50.1,96.914,50.1,97.039Z" transform="translate(-18.67 -39.574)" fill="#6900ff"/>
    <path id="Path_45" data-name="Path 45" d="M44.28,68.639c0-.251-.314-.439-.753-.439s-.627.188-.627.439.314.439.627.439C43.966,69.016,44.28,68.765,44.28,68.639Z" transform="translate(-15.987 -28.991)" fill="#6900ff"/>
    <path id="Path_46" data-name="Path 46" d="M44.28,75.639c0-.251-.314-.439-.753-.439s-.627.188-.627.439.314.439.627.439C43.966,76.078,44.28,75.89,44.28,75.639Z" transform="translate(-15.987 -31.599)" fill="#6900ff"/>
    <path id="Path_47" data-name="Path 47" d="M44.28,82.839c0-.251-.314-.439-.753-.439s-.627.188-.627.439.314.439.627.439C43.966,83.278,44.28,83.09,44.28,82.839Z" transform="translate(-15.987 -34.282)" fill="#6900ff"/>
    <path id="Path_48" data-name="Path 48" d="M44.28,90.039c0-.251-.314-.439-.753-.439s-.627.188-.627.439.314.439.627.439C43.966,90.416,44.28,90.227,44.28,90.039Z" transform="translate(-15.987 -36.966)" fill="#6900ff"/>
    <path id="Path_49" data-name="Path 49" d="M42.9,97.039c0,.251.314.439.627.439.439,0,.753-.188.753-.439s-.314-.439-.753-.439C43.214,96.663,42.9,96.914,42.9,97.039Z" transform="translate(-15.987 -39.574)" fill="#6900ff"/>
    <path id="Path_50" data-name="Path 50" d="M37.08,68.639c0-.251-.314-.439-.753-.439s-.627.188-.627.439.314.439.627.439C36.829,69.016,37.08,68.765,37.08,68.639Z" transform="translate(-13.304 -28.991)" fill="#6900ff"/>
    <path id="Path_51" data-name="Path 51" d="M37.08,75.639c0-.251-.314-.439-.753-.439s-.627.188-.627.439.314.439.627.439C36.829,76.078,37.08,75.89,37.08,75.639Z" transform="translate(-13.304 -31.599)" fill="#6900ff"/>
    <path id="Path_52" data-name="Path 52" d="M37.08,82.839c0-.251-.314-.439-.753-.439s-.627.188-.627.439.314.439.627.439C36.829,83.278,37.08,83.09,37.08,82.839Z" transform="translate(-13.304 -34.282)" fill="#6900ff"/>
    <path id="Path_53" data-name="Path 53" d="M37.08,90.039c0-.251-.314-.439-.753-.439s-.627.188-.627.439.314.439.627.439C36.829,90.416,37.08,90.227,37.08,90.039Z" transform="translate(-13.304 -36.966)" fill="#6900ff"/>
    <path id="Path_54" data-name="Path 54" d="M35.7,97.039c0,.251.314.439.627.439.439,0,.753-.188.753-.439s-.314-.439-.753-.439C36.014,96.663,35.7,96.914,35.7,97.039Z" transform="translate(-13.304 -39.574)" fill="#6900ff"/>
    <path id="Path_55" data-name="Path 55" d="M30.155,68.639c0-.251-.314-.439-.627-.439s-.627.188-.627.439.314.439.627.439C29.778,69.016,30.155,68.765,30.155,68.639Z" transform="translate(-10.77 -28.991)" fill="#6900ff"/>
    <path id="Path_56" data-name="Path 56" d="M30.155,75.639c0-.251-.314-.439-.627-.439s-.627.188-.627.439.314.439.627.439C29.778,76.078,30.155,75.89,30.155,75.639Z" transform="translate(-10.77 -31.599)" fill="#6900ff"/>
    <path id="Path_57" data-name="Path 57" d="M30.155,82.839c0-.251-.314-.439-.627-.439s-.627.188-.627.439.314.439.627.439C29.778,83.278,30.155,83.09,30.155,82.839Z" transform="translate(-10.77 -34.282)" fill="#6900ff"/>
    <path id="Path_58" data-name="Path 58" d="M30.155,90.039c0-.251-.314-.439-.627-.439s-.627.188-.627.439.314.439.627.439C29.778,90.416,30.155,90.227,30.155,90.039Z" transform="translate(-10.77 -36.966)" fill="#6900ff"/>
    <path id="Path_59" data-name="Path 59" d="M29.327,97.478c.376,0,.627-.188.627-.439s-.314-.439-.627-.439c-.376,0-.627.188-.627.439S28.951,97.478,29.327,97.478Z" transform="translate(-10.695 -39.574)" fill="#6900ff"/>
    <path id="Path_60" data-name="Path 60" d="M22.955,75.639c0-.251-.314-.439-.627-.439s-.627.188-.627.439.314.439.627.439C22.578,76.078,22.955,75.89,22.955,75.639Z" transform="translate(-8.087 -31.599)" fill="#6900ff"/>
    <path id="Path_61" data-name="Path 61" d="M22.955,82.839c0-.251-.314-.439-.627-.439s-.627.188-.627.439.314.439.627.439C22.578,83.278,22.955,83.09,22.955,82.839Z" transform="translate(-8.087 -34.282)" fill="#6900ff"/>
    <path id="Path_62" data-name="Path 62" d="M22.955,90.039c0-.251-.314-.439-.627-.439s-.627.188-.627.439.314.439.627.439C22.578,90.416,22.955,90.227,22.955,90.039Z" transform="translate(-8.087 -36.966)" fill="#6900ff"/>
    <path id="Path_63" data-name="Path 63" d="M22.227,97.478c.376,0,.627-.188.627-.439s-.314-.439-.627-.439-.627.188-.627.439S21.851,97.478,22.227,97.478Z" transform="translate(-8.049 -39.574)" fill="#6900ff"/>
    <path id="Path_64" data-name="Path 64" d="M15.68,82.839c0-.251-.314-.439-.627-.439-.439,0-.753.188-.753.439s.314.439.753.439S15.68,83.09,15.68,82.839Z" transform="translate(-5.329 -34.282)" fill="#6900ff"/>
    <path id="Path_65" data-name="Path 65" d="M15.68,90.039c0-.251-.314-.439-.627-.439-.439,0-.753.188-.753.439s.314.439.753.439S15.68,90.227,15.68,90.039Z" transform="translate(-5.329 -36.966)" fill="#6900ff"/>
    <path id="Path_66" data-name="Path 66" d="M14.3,97.039c0,.251.314.439.753.439s.627-.188.627-.439-.314-.439-.627-.439C14.614,96.663,14.3,96.914,14.3,97.039Z" transform="translate(-5.329 -39.574)" fill="#6900ff"/>
    <path id="Path_67" data-name="Path 67" d="M8.655,90.039c0-.251-.314-.439-.627-.439-.439,0-.627.188-.627.439s.314.439.627.439S8.655,90.227,8.655,90.039Z" transform="translate(-2.758 -36.966)" fill="#6900ff"/>
    <path id="Path_68" data-name="Path 68" d="M7.2,97.039c0,.251.314.439.627.439.439,0,.627-.188.627-.439s-.314-.439-.627-.439C7.451,96.663,7.2,96.914,7.2,97.039Z" transform="translate(-2.683 -39.574)" fill="#6900ff"/>
    <path id="Path_69" data-name="Path 69" d="M.627,97.478c.439,0,.627-.188.627-.439S.941,96.6.627,96.6,0,96.851,0,97.039.314,97.478.627,97.478Z" transform="translate(0 -39.574)" fill="#6900ff"/>
    <path id="Path_70" data-name="Path 70" d="M54.162,49.242V44.6H20.223L4.1,60.535V65.3H38.039Z" transform="translate(-1.528 -20.196)" fill="none" stroke="#fff" stroke-miterlimit="10" stroke-width="1"/>
    <path id="Path_71" data-name="Path 71" d="M21.194,5.7,9.4,17.494V37.13H38.258L49.989,25.4V5.7Z" transform="translate(-3.503 -5.7)" fill="none" stroke="#fff" stroke-miterlimit="10" stroke-width="1"/>
    <path id="Path_72" data-name="Path 72" d="M38.509,36.871V33.483H28.848V28.966H19.061V24.7H9.4V44.21H38.258L49.989,32.479V25.453Z" transform="translate(-3.503 -12.78)" fill="#fff"/>
  </g>
</svg>
