<svg xmlns="http://www.w3.org/2000/svg" xmlns:xlink="http://www.w3.org/1999/xlink" width="458.852" height="306.688" viewBox="0 0 458.852 306.688">
  <defs>
    <clipPath id="clip-path">
      <rect id="Rectangle_15" data-name="Rectangle 15" width="419.273" height="146.737" fill="#6900ff"/>
    </clipPath>
  </defs>
  <g id="Tečky" transform="translate(0 0.499)">
    <g id="Tečky-2" data-name="Tečky" transform="translate(0 159.452)" opacity="0.55">
      <g id="Group_3" data-name="Group 3" transform="translate(0 0)" clip-path="url(#clip-path)">
        <path id="Path_73" data-name="Path 73" d="M77.979,34c0,.877,1.166,1.458,2.335,1.458s2.335-.582,2.335-1.458-1.169-1.458-2.335-1.458-2.335.874-2.335,1.458" transform="translate(113.484 47.358)" fill="#6900ff"/>
        <path id="Path_74" data-name="Path 74" d="M76.4,34c0-.877-1.166-1.458-2.335-1.458-1.458,0-2.627.582-2.627,1.458s1.169,1.458,2.627,1.458S76.4,34.876,76.4,34" transform="translate(103.969 47.358)" fill="#6900ff"/>
        <path id="Path_75" data-name="Path 75" d="M71.441,40.538c0,.877,1.169,1.458,2.627,1.458s2.335-.582,2.335-1.458-1.169-1.458-2.335-1.458c-1.458,0-2.627.582-2.627,1.458" transform="translate(103.969 56.874)" fill="#6900ff"/>
        <path id="Path_76" data-name="Path 76" d="M69.811,34c0-.877-1.166-1.458-2.335-1.458-1.458,0-2.335.582-2.335,1.458s1.169,1.458,2.335,1.458,2.335-.582,2.335-1.458" transform="translate(94.801 47.358)" fill="#6900ff"/>
        <path id="Path_77" data-name="Path 77" d="M69.811,40.538c0-.877-1.166-1.458-2.335-1.458-1.458,0-2.335.582-2.335,1.458S66.31,42,67.476,42s2.335-.582,2.335-1.458" transform="translate(94.801 56.874)" fill="#6900ff"/>
        <path id="Path_78" data-name="Path 78" d="M65.022,47.075c0,.877,1.166,1.458,2.335,1.458,1.458,0,2.335-.582,2.335-1.458s-1.169-1.458-2.335-1.458-2.335.582-2.335,1.458" transform="translate(94.628 66.388)" fill="#6900ff"/>
        <path id="Path_79" data-name="Path 79" d="M63.273,34c0-.877-1.166-1.458-2.335-1.458-1.458,0-2.335.582-2.335,1.458s1.169,1.458,2.335,1.458,2.335-.582,2.335-1.458" transform="translate(85.286 47.358)" fill="#6900ff"/>
        <path id="Path_80" data-name="Path 80" d="M63.273,40.538c0-.877-1.166-1.458-2.335-1.458-1.458,0-2.335.582-2.335,1.458S59.772,42,60.938,42s2.335-.582,2.335-1.458" transform="translate(85.286 56.874)" fill="#6900ff"/>
        <path id="Path_81" data-name="Path 81" d="M63.273,47.075c0-.877-1.166-1.458-2.335-1.458-1.458,0-2.335.582-2.335,1.458s1.169,1.458,2.335,1.458,2.335-.874,2.335-1.458" transform="translate(85.286 66.388)" fill="#6900ff"/>
        <path id="Path_82" data-name="Path 82" d="M58.484,53.494c0,.877,1.166,1.458,2.335,1.458,1.458,0,2.335-.582,2.335-1.458s-1.169-1.458-2.335-1.458-2.335.874-2.335,1.458" transform="translate(85.113 75.729)" fill="#6900ff"/>
        <path id="Path_83" data-name="Path 83" d="M56.735,34c0-.877-1.166-1.458-2.335-1.458s-2.335.582-2.335,1.458,1.169,1.458,2.335,1.458,2.335-.582,2.335-1.458" transform="translate(75.771 47.358)" fill="#6900ff"/>
        <path id="Path_84" data-name="Path 84" d="M56.735,40.538c0-.877-1.166-1.458-2.335-1.458s-2.335.582-2.335,1.458S53.234,42,54.4,42s2.335-.582,2.335-1.458" transform="translate(75.771 56.874)" fill="#6900ff"/>
        <path id="Path_85" data-name="Path 85" d="M56.735,47.075c0-.877-1.166-1.458-2.335-1.458s-2.335.582-2.335,1.458,1.169,1.458,2.335,1.458,2.335-.874,2.335-1.458" transform="translate(75.771 66.388)" fill="#6900ff"/>
        <path id="Path_86" data-name="Path 86" d="M56.735,53.494c0-.877-1.166-1.458-2.335-1.458s-2.335.582-2.335,1.458,1.169,1.458,2.335,1.458,2.335-.582,2.335-1.458" transform="translate(75.771 75.729)" fill="#6900ff"/>
        <path id="Path_87" data-name="Path 87" d="M51.946,60.032c0,.877,1.166,1.461,2.335,1.461s2.335-.584,2.335-1.461-1.169-1.458-2.335-1.458-2.335.584-2.335,1.458" transform="translate(75.598 85.244)" fill="#6900ff"/>
        <path id="Path_88" data-name="Path 88" d="M50.316,34c0-.877-1.169-1.458-2.335-1.458-1.458,0-2.335.582-2.335,1.458s1.166,1.458,2.335,1.458,2.335-.582,2.335-1.458" transform="translate(66.429 47.358)" fill="#6900ff"/>
        <path id="Path_89" data-name="Path 89" d="M50.316,40.538c0-.877-1.169-1.458-2.335-1.458-1.458,0-2.335.582-2.335,1.458S46.812,42,47.981,42s2.335-.582,2.335-1.458" transform="translate(66.429 56.874)" fill="#6900ff"/>
        <path id="Path_90" data-name="Path 90" d="M50.316,47.075c0-.877-1.169-1.458-2.335-1.458-1.458,0-2.335.582-2.335,1.458s1.166,1.458,2.335,1.458,2.335-.874,2.335-1.458" transform="translate(66.429 66.388)" fill="#6900ff"/>
        <path id="Path_91" data-name="Path 91" d="M50.316,53.494c0-.877-1.169-1.458-2.335-1.458-1.458,0-2.335.582-2.335,1.458s1.166,1.458,2.335,1.458,2.335-.582,2.335-1.458" transform="translate(66.429 75.729)" fill="#6900ff"/>
        <path id="Path_92" data-name="Path 92" d="M45.527,60.032c0,.877,1.166,1.461,2.335,1.461,1.458,0,2.335-.584,2.335-1.461s-1.169-1.458-2.335-1.458-2.335.584-2.335,1.458" transform="translate(66.256 85.244)" fill="#6900ff"/>
        <path id="Path_93" data-name="Path 93" d="M43.951,34c0-.877-1.169-1.458-2.627-1.458s-2.335.582-2.335,1.458,1.169,1.458,2.335,1.458c1.458,0,2.627-.582,2.627-1.458" transform="translate(56.741 47.358)" fill="#6900ff"/>
        <path id="Path_94" data-name="Path 94" d="M43.951,40.538c0-.877-1.169-1.458-2.627-1.458s-2.335.582-2.335,1.458S40.158,42,41.324,42c1.458,0,2.627-.582,2.627-1.458" transform="translate(56.741 56.874)" fill="#6900ff"/>
        <path id="Path_95" data-name="Path 95" d="M43.951,47.075c0-.877-1.169-1.458-2.627-1.458s-2.335.582-2.335,1.458,1.169,1.458,2.335,1.458c1.458,0,2.627-.874,2.627-1.458" transform="translate(56.741 66.388)" fill="#6900ff"/>
        <path id="Path_96" data-name="Path 96" d="M43.951,53.494c0-.877-1.169-1.458-2.627-1.458s-2.335.582-2.335,1.458,1.169,1.458,2.335,1.458c1.458,0,2.627-.582,2.627-1.458" transform="translate(56.741 75.729)" fill="#6900ff"/>
        <path id="Path_97" data-name="Path 97" d="M38.99,60.032c0,.877,1.166,1.461,2.335,1.461,1.458,0,2.627-.584,2.627-1.461s-1.169-1.458-2.627-1.458c-1.169,0-2.335.584-2.335,1.458" transform="translate(56.743 85.244)" fill="#6900ff"/>
        <path id="Path_98" data-name="Path 98" d="M37.413,34c0-.877-1.166-1.458-2.627-1.458s-2.335.582-2.335,1.458,1.169,1.458,2.335,1.458c1.751,0,2.627-.582,2.627-1.458" transform="translate(47.227 47.358)" fill="#6900ff"/>
        <path id="Path_99" data-name="Path 99" d="M37.413,40.538c0-.877-1.166-1.458-2.627-1.458s-2.335.582-2.335,1.458S33.62,42,34.786,42c1.751,0,2.627-.582,2.627-1.458" transform="translate(47.227 56.874)" fill="#6900ff"/>
        <path id="Path_100" data-name="Path 100" d="M37.413,47.075c0-.877-1.166-1.458-2.627-1.458s-2.335.582-2.335,1.458,1.169,1.458,2.335,1.458c1.751,0,2.627-.874,2.627-1.458" transform="translate(47.227 66.388)" fill="#6900ff"/>
        <path id="Path_101" data-name="Path 101" d="M37.413,53.494c0-.877-1.166-1.458-2.627-1.458s-2.335.582-2.335,1.458,1.169,1.458,2.335,1.458c1.751,0,2.627-.582,2.627-1.458" transform="translate(47.227 75.729)" fill="#6900ff"/>
        <path id="Path_102" data-name="Path 102" d="M32.452,60.032c0,.877,1.166,1.461,2.335,1.461,1.458,0,2.627-.584,2.627-1.461s-1.169-1.458-2.627-1.458c-1.169,0-2.335.584-2.335,1.458" transform="translate(47.228 85.244)" fill="#6900ff"/>
        <path id="Path_103" data-name="Path 103" d="M30.821,34c0-.877-1.166-1.458-2.335-1.458s-2.335.582-2.335,1.458,1.169,1.458,2.335,1.458,2.335-.582,2.335-1.458" transform="translate(38.058 47.358)" fill="#6900ff"/>
        <path id="Path_104" data-name="Path 104" d="M30.821,40.538c0-.877-1.166-1.458-2.335-1.458s-2.335.582-2.335,1.458S27.32,42,28.486,42s2.335-.582,2.335-1.458" transform="translate(38.058 56.874)" fill="#6900ff"/>
        <path id="Path_105" data-name="Path 105" d="M30.821,47.075c0-.877-1.166-1.458-2.335-1.458s-2.335.582-2.335,1.458,1.169,1.458,2.335,1.458,2.335-.874,2.335-1.458" transform="translate(38.058 66.388)" fill="#6900ff"/>
        <path id="Path_106" data-name="Path 106" d="M30.821,53.494c0-.877-1.166-1.458-2.335-1.458s-2.335.582-2.335,1.458,1.169,1.458,2.335,1.458,2.335-.582,2.335-1.458" transform="translate(38.058 75.729)" fill="#6900ff"/>
        <path id="Path_107" data-name="Path 107" d="M28.368,61.493c1.289,0,2.335-.653,2.335-1.461s-1.046-1.458-2.335-1.458-2.335.653-2.335,1.458,1.046,1.461,2.335,1.461" transform="translate(37.886 85.244)" fill="#6900ff"/>
        <path id="Path_108" data-name="Path 108" d="M24.284,40.538c0-.877-1.166-1.458-2.335-1.458s-2.335.582-2.335,1.458S20.783,42,21.949,42s2.335-.582,2.335-1.458" transform="translate(28.545 56.874)" fill="#6900ff"/>
        <path id="Path_109" data-name="Path 109" d="M24.284,47.075c0-.877-1.166-1.458-2.335-1.458s-2.335.582-2.335,1.458,1.169,1.458,2.335,1.458,2.335-.874,2.335-1.458" transform="translate(28.545 66.388)" fill="#6900ff"/>
        <path id="Path_110" data-name="Path 110" d="M24.284,53.494c0-.877-1.166-1.458-2.335-1.458s-2.335.582-2.335,1.458,1.169,1.458,2.335,1.458,2.335-.582,2.335-1.458" transform="translate(28.545 75.729)" fill="#6900ff"/>
        <path id="Path_111" data-name="Path 111" d="M21.949,61.493c1.289,0,2.335-.653,2.335-1.461s-1.046-1.458-2.335-1.458-2.335.653-2.335,1.458,1.046,1.461,2.335,1.461" transform="translate(28.545 85.244)" fill="#6900ff"/>
        <path id="Path_112" data-name="Path 112" d="M17.919,47.075c0-.877-1.169-1.458-2.335-1.458-1.458,0-2.627.582-2.627,1.458s1.169,1.458,2.627,1.458,2.335-.874,2.335-1.458" transform="translate(18.857 66.388)" fill="#6900ff"/>
        <path id="Path_113" data-name="Path 113" d="M17.919,53.494c0-.877-1.169-1.458-2.335-1.458-1.458,0-2.627.582-2.627,1.458s1.169,1.458,2.627,1.458,2.335-.582,2.335-1.458" transform="translate(18.857 75.729)" fill="#6900ff"/>
        <path id="Path_114" data-name="Path 114" d="M12.957,60.032c0,.877,1.169,1.461,2.627,1.461s2.335-.584,2.335-1.461-1.169-1.458-2.335-1.458c-1.458,0-2.627.584-2.627,1.458" transform="translate(18.857 85.244)" fill="#6900ff"/>
        <path id="Path_115" data-name="Path 115" d="M11.327,53.494c0-.877-1.166-1.458-2.335-1.458-1.458,0-2.335.582-2.335,1.458s1.169,1.458,2.335,1.458,2.335-.582,2.335-1.458" transform="translate(9.688 75.729)" fill="#6900ff"/>
        <path id="Path_116" data-name="Path 116" d="M6.538,60.032c0,.877,1.166,1.461,2.335,1.461,1.458,0,2.335-.584,2.335-1.461s-1.169-1.458-2.335-1.458c-1.458,0-2.335.584-2.335,1.458" transform="translate(9.515 85.244)" fill="#6900ff"/>
        <path id="Path_117" data-name="Path 117" d="M2.335,61.493c1.458,0,2.335-.584,2.335-1.461S3.5,58.574,2.335,58.574,0,59.158,0,60.032s1.169,1.461,2.335,1.461" transform="translate(0 85.244)" fill="#6900ff"/>
        <path id="Path_118" data-name="Path 118" d="M110.52,1.458c0,.877,1.166,1.458,2.335,1.458s2.335-.582,2.335-1.458S114.021,0,112.855,0s-2.335.874-2.335,1.458" transform="translate(160.842 0)" fill="#6900ff"/>
        <path id="Path_119" data-name="Path 119" d="M108.944,1.458c0-.877-1.166-1.458-2.335-1.458-1.458,0-2.627.582-2.627,1.458s1.169,1.458,2.627,1.458,2.335-.582,2.335-1.458" transform="translate(151.327 0)" fill="#6900ff"/>
        <path id="Path_120" data-name="Path 120" d="M103.982,8c0,.877,1.169,1.458,2.627,1.458s2.335-.582,2.335-1.458-1.169-1.458-2.335-1.458c-1.458,0-2.627.582-2.627,1.458" transform="translate(151.327 9.515)" fill="#6900ff"/>
        <path id="Path_121" data-name="Path 121" d="M102.352,1.458c0-.877-1.166-1.458-2.335-1.458-1.458,0-2.335.582-2.335,1.458s1.169,1.458,2.335,1.458,2.335-.582,2.335-1.458" transform="translate(142.158 0)" fill="#6900ff"/>
        <path id="Path_122" data-name="Path 122" d="M102.352,8c0-.877-1.166-1.458-2.335-1.458-1.458,0-2.335.582-2.335,1.458s1.169,1.458,2.335,1.458,2.335-.582,2.335-1.458" transform="translate(142.158 9.515)" fill="#6900ff"/>
        <path id="Path_123" data-name="Path 123" d="M97.563,14.534c0,.877,1.166,1.458,2.335,1.458,1.458,0,2.335-.582,2.335-1.458s-1.169-1.458-2.335-1.458-2.335.582-2.335,1.458" transform="translate(141.985 19.03)" fill="#6900ff"/>
        <path id="Path_124" data-name="Path 124" d="M95.814,1.458C95.814.582,94.648,0,93.479,0c-1.458,0-2.335.582-2.335,1.458s1.169,1.458,2.335,1.458,2.335-.582,2.335-1.458" transform="translate(132.643 0)" fill="#6900ff"/>
        <path id="Path_125" data-name="Path 125" d="M95.814,8c0-.877-1.166-1.458-2.335-1.458-1.458,0-2.335.582-2.335,1.458s1.169,1.458,2.335,1.458S95.814,8.873,95.814,8" transform="translate(132.643 9.515)" fill="#6900ff"/>
        <path id="Path_126" data-name="Path 126" d="M95.814,14.534c0-.877-1.166-1.458-2.335-1.458-1.458,0-2.335.582-2.335,1.458s1.169,1.458,2.335,1.458,2.335-.874,2.335-1.458" transform="translate(132.643 19.03)" fill="#6900ff"/>
        <path id="Path_127" data-name="Path 127" d="M91.025,20.953c0,.877,1.166,1.458,2.335,1.458,1.458,0,2.335-.582,2.335-1.458s-1.169-1.458-2.335-1.458-2.335.874-2.335,1.458" transform="translate(132.47 28.372)" fill="#6900ff"/>
        <path id="Path_128" data-name="Path 128" d="M89.276,1.458C89.276.582,88.11,0,86.941,0s-2.335.582-2.335,1.458,1.169,1.458,2.335,1.458,2.335-.582,2.335-1.458" transform="translate(123.129 0)" fill="#6900ff"/>
        <path id="Path_129" data-name="Path 129" d="M89.276,8c0-.877-1.166-1.458-2.335-1.458S84.606,7.12,84.606,8s1.169,1.458,2.335,1.458S89.276,8.873,89.276,8" transform="translate(123.129 9.515)" fill="#6900ff"/>
        <path id="Path_130" data-name="Path 130" d="M89.276,14.534c0-.877-1.166-1.458-2.335-1.458s-2.335.582-2.335,1.458,1.169,1.458,2.335,1.458,2.335-.874,2.335-1.458" transform="translate(123.129 19.03)" fill="#6900ff"/>
        <path id="Path_131" data-name="Path 131" d="M89.276,20.953c0-.877-1.166-1.458-2.335-1.458s-2.335.582-2.335,1.458,1.169,1.458,2.335,1.458,2.335-.582,2.335-1.458" transform="translate(123.129 28.372)" fill="#6900ff"/>
        <path id="Path_132" data-name="Path 132" d="M84.488,27.491c0,.877,1.166,1.461,2.335,1.461s2.335-.584,2.335-1.461-1.169-1.458-2.335-1.458-2.335.584-2.335,1.458" transform="translate(122.957 37.887)" fill="#6900ff"/>
        <path id="Path_133" data-name="Path 133" d="M82.857,1.458C82.857.582,81.688,0,80.522,0c-1.458,0-2.335.582-2.335,1.458s1.166,1.458,2.335,1.458,2.335-.582,2.335-1.458" transform="translate(113.787 0)" fill="#6900ff"/>
        <path id="Path_134" data-name="Path 134" d="M82.857,8c0-.877-1.169-1.458-2.335-1.458-1.458,0-2.335.582-2.335,1.458s1.166,1.458,2.335,1.458S82.857,8.873,82.857,8" transform="translate(113.787 9.515)" fill="#6900ff"/>
        <path id="Path_135" data-name="Path 135" d="M82.857,14.534c0-.877-1.169-1.458-2.335-1.458-1.458,0-2.335.582-2.335,1.458s1.166,1.458,2.335,1.458,2.335-.874,2.335-1.458" transform="translate(113.787 19.03)" fill="#6900ff"/>
        <path id="Path_136" data-name="Path 136" d="M82.857,20.953c0-.877-1.169-1.458-2.335-1.458-1.458,0-2.335.582-2.335,1.458s1.166,1.458,2.335,1.458,2.335-.582,2.335-1.458" transform="translate(113.787 28.372)" fill="#6900ff"/>
        <path id="Path_137" data-name="Path 137" d="M78.068,27.491c0,.877,1.166,1.461,2.335,1.461,1.458,0,2.335-.584,2.335-1.461s-1.169-1.458-2.335-1.458-2.335.584-2.335,1.458" transform="translate(113.614 37.887)" fill="#6900ff"/>
        <path id="Path_138" data-name="Path 138" d="M76.492,1.458C76.492.582,75.323,0,73.865,0S71.53.582,71.53,1.458,72.7,2.917,73.865,2.917c1.458,0,2.627-.582,2.627-1.458" transform="translate(104.099 0)" fill="#6900ff"/>
        <path id="Path_139" data-name="Path 139" d="M76.492,8c0-.877-1.169-1.458-2.627-1.458S71.53,7.12,71.53,8,72.7,9.455,73.865,9.455c1.458,0,2.627-.582,2.627-1.458" transform="translate(104.099 9.515)" fill="#6900ff"/>
        <path id="Path_140" data-name="Path 140" d="M76.492,14.534c0-.877-1.169-1.458-2.627-1.458s-2.335.582-2.335,1.458,1.169,1.458,2.335,1.458c1.458,0,2.627-.874,2.627-1.458" transform="translate(104.099 19.03)" fill="#6900ff"/>
        <path id="Path_141" data-name="Path 141" d="M76.492,20.953c0-.877-1.169-1.458-2.627-1.458s-2.335.582-2.335,1.458,1.169,1.458,2.335,1.458c1.458,0,2.627-.582,2.627-1.458" transform="translate(104.099 28.372)" fill="#6900ff"/>
        <path id="Path_142" data-name="Path 142" d="M71.531,27.491c0,.877,1.166,1.461,2.335,1.461,1.458,0,2.627-.584,2.627-1.461s-1.169-1.458-2.627-1.458c-1.169,0-2.335.584-2.335,1.458" transform="translate(104.1 37.887)" fill="#6900ff"/>
        <path id="Path_143" data-name="Path 143" d="M69.955,1.458C69.955.582,68.789,0,67.328,0s-2.335.582-2.335,1.458,1.169,1.458,2.335,1.458c1.751,0,2.627-.582,2.627-1.458" transform="translate(94.585 0)" fill="#6900ff"/>
        <path id="Path_144" data-name="Path 144" d="M69.955,8c0-.877-1.166-1.458-2.627-1.458S64.993,7.12,64.993,8s1.169,1.458,2.335,1.458c1.751,0,2.627-.582,2.627-1.458" transform="translate(94.585 9.515)" fill="#6900ff"/>
        <path id="Path_145" data-name="Path 145" d="M69.955,14.534c0-.877-1.166-1.458-2.627-1.458s-2.335.582-2.335,1.458,1.169,1.458,2.335,1.458c1.751,0,2.627-.874,2.627-1.458" transform="translate(94.585 19.03)" fill="#6900ff"/>
        <path id="Path_146" data-name="Path 146" d="M69.955,20.953c0-.877-1.166-1.458-2.627-1.458s-2.335.582-2.335,1.458,1.169,1.458,2.335,1.458c1.751,0,2.627-.582,2.627-1.458" transform="translate(94.585 28.372)" fill="#6900ff"/>
        <path id="Path_147" data-name="Path 147" d="M64.993,27.491c0,.877,1.166,1.461,2.335,1.461,1.458,0,2.627-.584,2.627-1.461s-1.169-1.458-2.627-1.458c-1.169,0-2.335.584-2.335,1.458" transform="translate(94.585 37.887)" fill="#6900ff"/>
        <path id="Path_148" data-name="Path 148" d="M63.363,1.458C63.363.582,62.2,0,61.028,0s-2.335.582-2.335,1.458,1.169,1.458,2.335,1.458,2.335-.582,2.335-1.458" transform="translate(85.417 0)" fill="#6900ff"/>
        <path id="Path_149" data-name="Path 149" d="M63.363,8c0-.877-1.166-1.458-2.335-1.458S58.693,7.12,58.693,8s1.169,1.458,2.335,1.458S63.363,8.873,63.363,8" transform="translate(85.417 9.515)" fill="#6900ff"/>
        <path id="Path_150" data-name="Path 150" d="M63.363,14.534c0-.877-1.166-1.458-2.335-1.458s-2.335.582-2.335,1.458,1.169,1.458,2.335,1.458,2.335-.874,2.335-1.458" transform="translate(85.417 19.03)" fill="#6900ff"/>
        <path id="Path_151" data-name="Path 151" d="M63.363,20.953c0-.877-1.166-1.458-2.335-1.458s-2.335.582-2.335,1.458,1.169,1.458,2.335,1.458,2.335-.582,2.335-1.458" transform="translate(85.417 28.372)" fill="#6900ff"/>
        <path id="Path_152" data-name="Path 152" d="M60.909,28.952c1.289,0,2.335-.653,2.335-1.461s-1.046-1.458-2.335-1.458-2.335.653-2.335,1.458,1.046,1.461,2.335,1.461" transform="translate(85.244 37.887)" fill="#6900ff"/>
        <path id="Path_153" data-name="Path 153" d="M56.825,8c0-.877-1.169-1.458-2.335-1.458S52.155,7.12,52.155,8s1.169,1.458,2.335,1.458S56.825,8.873,56.825,8" transform="translate(75.902 9.515)" fill="#6900ff"/>
        <path id="Path_154" data-name="Path 154" d="M56.825,14.534c0-.877-1.169-1.458-2.335-1.458s-2.335.582-2.335,1.458,1.169,1.458,2.335,1.458,2.335-.874,2.335-1.458" transform="translate(75.902 19.03)" fill="#6900ff"/>
        <path id="Path_155" data-name="Path 155" d="M56.825,20.953c0-.877-1.169-1.458-2.335-1.458s-2.335.582-2.335,1.458,1.169,1.458,2.335,1.458,2.335-.582,2.335-1.458" transform="translate(75.902 28.372)" fill="#6900ff"/>
        <path id="Path_156" data-name="Path 156" d="M54.49,28.952c1.289,0,2.335-.653,2.335-1.461s-1.046-1.458-2.335-1.458-2.335.653-2.335,1.458,1.046,1.461,2.335,1.461" transform="translate(75.902 37.887)" fill="#6900ff"/>
        <path id="Path_157" data-name="Path 157" d="M50.46,14.534c0-.877-1.169-1.458-2.335-1.458-1.458,0-2.627.582-2.627,1.458s1.169,1.458,2.627,1.458,2.335-.874,2.335-1.458" transform="translate(66.214 19.03)" fill="#6900ff"/>
        <path id="Path_158" data-name="Path 158" d="M50.46,20.953c0-.877-1.169-1.458-2.335-1.458-1.458,0-2.627.582-2.627,1.458s1.169,1.458,2.627,1.458,2.335-.582,2.335-1.458" transform="translate(66.214 28.372)" fill="#6900ff"/>
        <path id="Path_159" data-name="Path 159" d="M45.5,27.491c0,.877,1.166,1.461,2.627,1.461s2.335-.584,2.335-1.461-1.169-1.458-2.335-1.458c-1.461,0-2.627.584-2.627,1.458" transform="translate(66.214 37.887)" fill="#6900ff"/>
        <path id="Path_160" data-name="Path 160" d="M43.868,20.953c0-.877-1.166-1.458-2.335-1.458-1.458,0-2.335.582-2.335,1.458s1.169,1.458,2.335,1.458,2.335-.582,2.335-1.458" transform="translate(57.046 28.372)" fill="#6900ff"/>
        <path id="Path_161" data-name="Path 161" d="M39.079,27.491c0,.877,1.166,1.461,2.335,1.461,1.458,0,2.335-.584,2.335-1.461s-1.169-1.458-2.335-1.458c-1.458,0-2.335.584-2.335,1.458" transform="translate(56.872 37.887)" fill="#6900ff"/>
        <path id="Path_162" data-name="Path 162" d="M34.876,28.952c1.458,0,2.335-.584,2.335-1.461s-1.169-1.458-2.335-1.458-2.335.584-2.335,1.458,1.169,1.461,2.335,1.461" transform="translate(47.357 37.887)" fill="#6900ff"/>
        <path id="Path_163" data-name="Path 163" d="M136.318,34c0,.877,1.166,1.458,2.335,1.458s2.335-.582,2.335-1.458-1.169-1.458-2.335-1.458-2.335.874-2.335,1.458" transform="translate(198.386 47.358)" fill="#6900ff"/>
        <path id="Path_164" data-name="Path 164" d="M134.742,34c0-.877-1.166-1.458-2.335-1.458-1.458,0-2.627.582-2.627,1.458s1.169,1.458,2.627,1.458,2.335-.582,2.335-1.458" transform="translate(188.871 47.358)" fill="#6900ff"/>
        <path id="Path_165" data-name="Path 165" d="M129.78,40.538c0,.877,1.166,1.458,2.627,1.458s2.335-.582,2.335-1.458-1.169-1.458-2.335-1.458c-1.461,0-2.627.582-2.627,1.458" transform="translate(188.871 56.874)" fill="#6900ff"/>
        <path id="Path_166" data-name="Path 166" d="M128.152,34c0-.877-1.169-1.458-2.338-1.458-1.458,0-2.335.582-2.335,1.458s1.169,1.458,2.335,1.458,2.338-.582,2.338-1.458" transform="translate(179.701 47.358)" fill="#6900ff"/>
        <path id="Path_167" data-name="Path 167" d="M128.152,40.538c0-.877-1.169-1.458-2.338-1.458-1.458,0-2.335.582-2.335,1.458S124.648,42,125.814,42s2.338-.582,2.338-1.458" transform="translate(179.701 56.874)" fill="#6900ff"/>
        <path id="Path_168" data-name="Path 168" d="M123.361,47.075c0,.877,1.166,1.458,2.335,1.458,1.458,0,2.335-.582,2.335-1.458s-1.169-1.458-2.335-1.458-2.335.582-2.335,1.458" transform="translate(179.529 66.388)" fill="#6900ff"/>
        <path id="Path_169" data-name="Path 169" d="M121.612,34c0-.877-1.166-1.458-2.335-1.458-1.458,0-2.335.582-2.335,1.458s1.169,1.458,2.335,1.458,2.335-.582,2.335-1.458" transform="translate(170.188 47.358)" fill="#6900ff"/>
        <path id="Path_170" data-name="Path 170" d="M121.612,40.538c0-.877-1.166-1.458-2.335-1.458-1.458,0-2.335.582-2.335,1.458S118.111,42,119.277,42s2.335-.582,2.335-1.458" transform="translate(170.188 56.874)" fill="#6900ff"/>
        <path id="Path_171" data-name="Path 171" d="M121.612,47.075c0-.877-1.166-1.458-2.335-1.458-1.458,0-2.335.582-2.335,1.458s1.169,1.458,2.335,1.458,2.335-.874,2.335-1.458" transform="translate(170.188 66.388)" fill="#6900ff"/>
        <path id="Path_172" data-name="Path 172" d="M116.823,53.494c0,.877,1.166,1.458,2.335,1.458,1.458,0,2.335-.582,2.335-1.458s-1.169-1.458-2.335-1.458-2.335.874-2.335,1.458" transform="translate(170.015 75.729)" fill="#6900ff"/>
        <path id="Path_173" data-name="Path 173" d="M115.074,34c0-.877-1.166-1.458-2.335-1.458S110.4,33.123,110.4,34s1.169,1.458,2.335,1.458,2.335-.582,2.335-1.458" transform="translate(160.673 47.358)" fill="#6900ff"/>
        <path id="Path_174" data-name="Path 174" d="M115.074,40.538c0-.877-1.166-1.458-2.335-1.458s-2.335.582-2.335,1.458S111.573,42,112.739,42s2.335-.582,2.335-1.458" transform="translate(160.673 56.874)" fill="#6900ff"/>
        <path id="Path_175" data-name="Path 175" d="M115.074,47.075c0-.877-1.166-1.458-2.335-1.458s-2.335.582-2.335,1.458,1.169,1.458,2.335,1.458,2.335-.874,2.335-1.458" transform="translate(160.673 66.388)" fill="#6900ff"/>
        <path id="Path_176" data-name="Path 176" d="M115.074,53.494c0-.877-1.166-1.458-2.335-1.458s-2.335.582-2.335,1.458,1.169,1.458,2.335,1.458,2.335-.582,2.335-1.458" transform="translate(160.673 75.729)" fill="#6900ff"/>
        <path id="Path_177" data-name="Path 177" d="M110.285,60.032c0,.877,1.166,1.461,2.335,1.461s2.335-.584,2.335-1.461-1.169-1.458-2.335-1.458-2.335.584-2.335,1.458" transform="translate(160.5 85.244)" fill="#6900ff"/>
        <path id="Path_178" data-name="Path 178" d="M108.655,34c0-.877-1.169-1.458-2.335-1.458-1.458,0-2.335.582-2.335,1.458s1.166,1.458,2.335,1.458,2.335-.582,2.335-1.458" transform="translate(151.331 47.358)" fill="#6900ff"/>
        <path id="Path_179" data-name="Path 179" d="M108.655,40.538c0-.877-1.169-1.458-2.335-1.458-1.458,0-2.335.582-2.335,1.458S105.151,42,106.32,42s2.335-.582,2.335-1.458" transform="translate(151.331 56.874)" fill="#6900ff"/>
        <path id="Path_180" data-name="Path 180" d="M108.655,47.075c0-.877-1.169-1.458-2.335-1.458-1.458,0-2.335.582-2.335,1.458s1.166,1.458,2.335,1.458,2.335-.874,2.335-1.458" transform="translate(151.331 66.388)" fill="#6900ff"/>
        <path id="Path_181" data-name="Path 181" d="M108.655,53.494c0-.877-1.169-1.458-2.335-1.458-1.458,0-2.335.582-2.335,1.458s1.166,1.458,2.335,1.458,2.335-.582,2.335-1.458" transform="translate(151.331 75.729)" fill="#6900ff"/>
        <path id="Path_182" data-name="Path 182" d="M103.866,60.032c0,.877,1.166,1.461,2.335,1.461,1.458,0,2.335-.584,2.335-1.461s-1.169-1.458-2.335-1.458-2.335.584-2.335,1.458" transform="translate(151.158 85.244)" fill="#6900ff"/>
        <path id="Path_183" data-name="Path 183" d="M102.29,34c0-.877-1.169-1.458-2.627-1.458s-2.335.582-2.335,1.458,1.169,1.458,2.335,1.458c1.458,0,2.627-.582,2.627-1.458" transform="translate(141.643 47.358)" fill="#6900ff"/>
        <path id="Path_184" data-name="Path 184" d="M102.29,40.538c0-.877-1.169-1.458-2.627-1.458s-2.335.582-2.335,1.458S98.5,42,99.663,42c1.458,0,2.627-.582,2.627-1.458" transform="translate(141.643 56.874)" fill="#6900ff"/>
        <path id="Path_185" data-name="Path 185" d="M102.29,47.075c0-.877-1.169-1.458-2.627-1.458s-2.335.582-2.335,1.458,1.169,1.458,2.335,1.458c1.458,0,2.627-.874,2.627-1.458" transform="translate(141.643 66.388)" fill="#6900ff"/>
        <path id="Path_186" data-name="Path 186" d="M102.29,53.494c0-.877-1.169-1.458-2.627-1.458s-2.335.582-2.335,1.458,1.169,1.458,2.335,1.458c1.458,0,2.627-.582,2.627-1.458" transform="translate(141.643 75.729)" fill="#6900ff"/>
        <path id="Path_187" data-name="Path 187" d="M97.328,60.032c0,.877,1.166,1.461,2.335,1.461,1.458,0,2.627-.584,2.627-1.461s-1.169-1.458-2.627-1.458c-1.169,0-2.335.584-2.335,1.458" transform="translate(141.643 85.244)" fill="#6900ff"/>
        <path id="Path_188" data-name="Path 188" d="M95.752,34c0-.877-1.166-1.458-2.627-1.458S90.79,33.123,90.79,34s1.169,1.458,2.335,1.458c1.751,0,2.627-.582,2.627-1.458" transform="translate(132.128 47.358)" fill="#6900ff"/>
        <path id="Path_189" data-name="Path 189" d="M95.752,40.538c0-.877-1.166-1.458-2.627-1.458s-2.335.582-2.335,1.458S91.959,42,93.125,42c1.751,0,2.627-.582,2.627-1.458" transform="translate(132.128 56.874)" fill="#6900ff"/>
        <path id="Path_190" data-name="Path 190" d="M95.752,47.075c0-.877-1.166-1.458-2.627-1.458s-2.335.582-2.335,1.458,1.169,1.458,2.335,1.458c1.751,0,2.627-.874,2.627-1.458" transform="translate(132.128 66.388)" fill="#6900ff"/>
        <path id="Path_191" data-name="Path 191" d="M95.752,53.494c0-.877-1.166-1.458-2.627-1.458s-2.335.582-2.335,1.458,1.169,1.458,2.335,1.458c1.751,0,2.627-.582,2.627-1.458" transform="translate(132.128 75.729)" fill="#6900ff"/>
        <path id="Path_192" data-name="Path 192" d="M90.79,60.032c0,.877,1.166,1.461,2.335,1.461,1.458,0,2.627-.584,2.627-1.461s-1.169-1.458-2.627-1.458c-1.169,0-2.335.584-2.335,1.458" transform="translate(132.128 85.244)" fill="#6900ff"/>
        <path id="Path_193" data-name="Path 193" d="M89.16,34c0-.877-1.166-1.458-2.335-1.458S84.49,33.123,84.49,34s1.169,1.458,2.335,1.458S89.16,34.876,89.16,34" transform="translate(122.96 47.358)" fill="#6900ff"/>
        <path id="Path_194" data-name="Path 194" d="M89.16,40.538c0-.877-1.166-1.458-2.335-1.458s-2.335.582-2.335,1.458S85.659,42,86.825,42s2.335-.582,2.335-1.458" transform="translate(122.96 56.874)" fill="#6900ff"/>
        <path id="Path_195" data-name="Path 195" d="M89.16,47.075c0-.877-1.166-1.458-2.335-1.458s-2.335.582-2.335,1.458,1.169,1.458,2.335,1.458,2.335-.874,2.335-1.458" transform="translate(122.96 66.388)" fill="#6900ff"/>
        <path id="Path_196" data-name="Path 196" d="M89.16,53.494c0-.877-1.166-1.458-2.335-1.458s-2.335.582-2.335,1.458,1.169,1.458,2.335,1.458,2.335-.582,2.335-1.458" transform="translate(122.96 75.729)" fill="#6900ff"/>
        <path id="Path_197" data-name="Path 197" d="M86.706,61.493c1.289,0,2.335-.653,2.335-1.461S88,58.574,86.706,58.574s-2.335.653-2.335,1.458,1.046,1.461,2.335,1.461" transform="translate(122.787 85.244)" fill="#6900ff"/>
        <path id="Path_198" data-name="Path 198" d="M82.622,40.538c0-.877-1.169-1.458-2.335-1.458s-2.335.582-2.335,1.458S79.121,42,80.287,42s2.335-.582,2.335-1.458" transform="translate(113.445 56.874)" fill="#6900ff"/>
        <path id="Path_199" data-name="Path 199" d="M82.622,47.075c0-.877-1.169-1.458-2.335-1.458s-2.335.582-2.335,1.458,1.169,1.458,2.335,1.458,2.335-.874,2.335-1.458" transform="translate(113.445 66.388)" fill="#6900ff"/>
        <path id="Path_200" data-name="Path 200" d="M82.622,53.494c0-.877-1.169-1.458-2.335-1.458s-2.335.582-2.335,1.458,1.169,1.458,2.335,1.458,2.335-.582,2.335-1.458" transform="translate(113.445 75.729)" fill="#6900ff"/>
        <path id="Path_201" data-name="Path 201" d="M80.287,61.493c1.289,0,2.335-.653,2.335-1.461s-1.046-1.458-2.335-1.458-2.335.653-2.335,1.458S79,61.493,80.287,61.493" transform="translate(113.445 85.244)" fill="#6900ff"/>
        <path id="Path_202" data-name="Path 202" d="M76.257,47.075c0-.877-1.169-1.458-2.335-1.458-1.458,0-2.627.582-2.627,1.458s1.169,1.458,2.627,1.458,2.335-.874,2.335-1.458" transform="translate(103.757 66.388)" fill="#6900ff"/>
        <path id="Path_203" data-name="Path 203" d="M76.257,53.494c0-.877-1.169-1.458-2.335-1.458-1.458,0-2.627.582-2.627,1.458s1.169,1.458,2.627,1.458,2.335-.582,2.335-1.458" transform="translate(103.757 75.729)" fill="#6900ff"/>
        <path id="Path_204" data-name="Path 204" d="M71.295,60.032c0,.877,1.166,1.461,2.627,1.461s2.335-.584,2.335-1.461-1.169-1.458-2.335-1.458c-1.461,0-2.627.584-2.627,1.458" transform="translate(103.757 85.244)" fill="#6900ff"/>
        <path id="Path_205" data-name="Path 205" d="M69.665,53.494c0-.877-1.166-1.458-2.335-1.458-1.458,0-2.335.582-2.335,1.458s1.169,1.458,2.335,1.458,2.335-.582,2.335-1.458" transform="translate(94.588 75.729)" fill="#6900ff"/>
        <path id="Path_206" data-name="Path 206" d="M64.876,60.032c0,.877,1.166,1.461,2.335,1.461,1.458,0,2.335-.584,2.335-1.461s-1.169-1.458-2.335-1.458c-1.458,0-2.335.584-2.335,1.458" transform="translate(94.415 85.244)" fill="#6900ff"/>
        <path id="Path_207" data-name="Path 207" d="M60.674,61.493c1.456,0,2.333-.584,2.333-1.461s-1.169-1.458-2.333-1.458-2.335.584-2.335,1.458,1.166,1.461,2.335,1.461" transform="translate(84.902 85.244)" fill="#6900ff"/>
        <path id="Path_208" data-name="Path 208" d="M168.859,1.458c0,.877,1.166,1.458,2.335,1.458s2.335-.582,2.335-1.458S172.36,0,171.194,0s-2.335.874-2.335,1.458" transform="translate(245.744 0)" fill="#6900ff"/>
        <path id="Path_209" data-name="Path 209" d="M167.283,1.458c0-.877-1.166-1.458-2.335-1.458-1.458,0-2.627.582-2.627,1.458s1.169,1.458,2.627,1.458,2.335-.582,2.335-1.458" transform="translate(236.229 0)" fill="#6900ff"/>
        <path id="Path_210" data-name="Path 210" d="M162.321,8c0,.877,1.166,1.458,2.627,1.458s2.335-.582,2.335-1.458-1.169-1.458-2.335-1.458c-1.461,0-2.627.582-2.627,1.458" transform="translate(236.229 9.515)" fill="#6900ff"/>
        <path id="Path_211" data-name="Path 211" d="M160.691,1.458c0-.877-1.166-1.458-2.335-1.458-1.458,0-2.335.582-2.335,1.458s1.169,1.458,2.335,1.458,2.335-.582,2.335-1.458" transform="translate(227.06 0)" fill="#6900ff"/>
        <path id="Path_212" data-name="Path 212" d="M160.691,8c0-.877-1.166-1.458-2.335-1.458-1.458,0-2.335.582-2.335,1.458s1.169,1.458,2.335,1.458,2.335-.582,2.335-1.458" transform="translate(227.06 9.515)" fill="#6900ff"/>
        <path id="Path_213" data-name="Path 213" d="M155.9,14.534c0,.877,1.169,1.458,2.335,1.458,1.458,0,2.335-.582,2.335-1.458s-1.169-1.458-2.335-1.458-2.335.582-2.335,1.458" transform="translate(226.887 19.03)" fill="#6900ff"/>
        <path id="Path_214" data-name="Path 214" d="M154.153,1.458c0-.877-1.169-1.458-2.335-1.458-1.458,0-2.335.582-2.335,1.458s1.169,1.458,2.335,1.458,2.335-.582,2.335-1.458" transform="translate(217.545 0)" fill="#6900ff"/>
        <path id="Path_215" data-name="Path 215" d="M154.153,8c0-.877-1.169-1.458-2.335-1.458-1.458,0-2.335.582-2.335,1.458s1.169,1.458,2.335,1.458,2.335-.582,2.335-1.458" transform="translate(217.545 9.515)" fill="#6900ff"/>
        <path id="Path_216" data-name="Path 216" d="M154.153,14.534c0-.877-1.169-1.458-2.335-1.458-1.458,0-2.335.582-2.335,1.458s1.169,1.458,2.335,1.458,2.335-.874,2.335-1.458" transform="translate(217.545 19.03)" fill="#6900ff"/>
        <path id="Path_217" data-name="Path 217" d="M149.364,20.953c0,.877,1.166,1.458,2.335,1.458,1.458,0,2.335-.582,2.335-1.458s-1.169-1.458-2.335-1.458-2.335.874-2.335,1.458" transform="translate(217.372 28.372)" fill="#6900ff"/>
        <path id="Path_218" data-name="Path 218" d="M147.615,1.458C147.615.582,146.446,0,145.28,0s-2.335.582-2.335,1.458,1.169,1.458,2.335,1.458,2.335-.582,2.335-1.458" transform="translate(208.03 0)" fill="#6900ff"/>
        <path id="Path_219" data-name="Path 219" d="M147.615,8c0-.877-1.169-1.458-2.335-1.458S142.945,7.12,142.945,8s1.169,1.458,2.335,1.458,2.335-.582,2.335-1.458" transform="translate(208.03 9.515)" fill="#6900ff"/>
        <path id="Path_220" data-name="Path 220" d="M147.615,14.534c0-.877-1.169-1.458-2.335-1.458s-2.335.582-2.335,1.458,1.169,1.458,2.335,1.458,2.335-.874,2.335-1.458" transform="translate(208.03 19.03)" fill="#6900ff"/>
        <path id="Path_221" data-name="Path 221" d="M147.615,20.953c0-.877-1.169-1.458-2.335-1.458s-2.335.582-2.335,1.458,1.169,1.458,2.335,1.458,2.335-.582,2.335-1.458" transform="translate(208.03 28.372)" fill="#6900ff"/>
        <path id="Path_222" data-name="Path 222" d="M142.826,27.491c0,.877,1.166,1.461,2.335,1.461s2.335-.584,2.335-1.461-1.169-1.458-2.335-1.458-2.335.584-2.335,1.458" transform="translate(207.857 37.887)" fill="#6900ff"/>
        <path id="Path_223" data-name="Path 223" d="M141.2,1.458C141.2.582,140.03,0,138.861,0c-1.458,0-2.335.582-2.335,1.458s1.169,1.458,2.335,1.458,2.335-.582,2.335-1.458" transform="translate(198.689 0)" fill="#6900ff"/>
        <path id="Path_224" data-name="Path 224" d="M141.2,8c0-.877-1.166-1.458-2.335-1.458-1.458,0-2.335.582-2.335,1.458s1.169,1.458,2.335,1.458S141.2,8.873,141.2,8" transform="translate(198.689 9.515)" fill="#6900ff"/>
        <path id="Path_225" data-name="Path 225" d="M141.2,14.534c0-.877-1.166-1.458-2.335-1.458-1.458,0-2.335.582-2.335,1.458s1.169,1.458,2.335,1.458,2.335-.874,2.335-1.458" transform="translate(198.689 19.03)" fill="#6900ff"/>
        <path id="Path_226" data-name="Path 226" d="M141.2,20.953c0-.877-1.166-1.458-2.335-1.458-1.458,0-2.335.582-2.335,1.458s1.169,1.458,2.335,1.458,2.335-.582,2.335-1.458" transform="translate(198.689 28.372)" fill="#6900ff"/>
        <path id="Path_227" data-name="Path 227" d="M136.407,27.491c0,.877,1.166,1.461,2.335,1.461,1.458,0,2.335-.584,2.335-1.461s-1.169-1.458-2.335-1.458-2.335.584-2.335,1.458" transform="translate(198.516 37.887)" fill="#6900ff"/>
        <path id="Path_228" data-name="Path 228" d="M134.831,1.458C134.831.582,133.665,0,132.2,0s-2.335.582-2.335,1.458,1.169,1.458,2.335,1.458c1.461,0,2.627-.582,2.627-1.458" transform="translate(189.001 0)" fill="#6900ff"/>
        <path id="Path_229" data-name="Path 229" d="M134.831,8c0-.877-1.166-1.458-2.627-1.458S129.869,7.12,129.869,8s1.169,1.458,2.335,1.458c1.461,0,2.627-.582,2.627-1.458" transform="translate(189.001 9.515)" fill="#6900ff"/>
        <path id="Path_230" data-name="Path 230" d="M134.831,14.534c0-.877-1.166-1.458-2.627-1.458s-2.335.582-2.335,1.458,1.169,1.458,2.335,1.458c1.461,0,2.627-.874,2.627-1.458" transform="translate(189.001 19.03)" fill="#6900ff"/>
        <path id="Path_231" data-name="Path 231" d="M134.831,20.953c0-.877-1.166-1.458-2.627-1.458s-2.335.582-2.335,1.458,1.169,1.458,2.335,1.458c1.461,0,2.627-.582,2.627-1.458" transform="translate(189.001 28.372)" fill="#6900ff"/>
        <path id="Path_232" data-name="Path 232" d="M129.869,27.491c0,.877,1.166,1.461,2.335,1.461,1.458,0,2.627-.584,2.627-1.461s-1.169-1.458-2.627-1.458c-1.169,0-2.335.584-2.335,1.458" transform="translate(189.001 37.887)" fill="#6900ff"/>
        <path id="Path_233" data-name="Path 233" d="M128.293,1.458c0-.877-1.166-1.458-2.627-1.458s-2.335.582-2.335,1.458,1.169,1.458,2.335,1.458c1.751,0,2.627-.582,2.627-1.458" transform="translate(179.486 0)" fill="#6900ff"/>
        <path id="Path_234" data-name="Path 234" d="M128.293,8c0-.877-1.166-1.458-2.627-1.458S123.331,7.12,123.331,8s1.169,1.458,2.335,1.458c1.751,0,2.627-.582,2.627-1.458" transform="translate(179.486 9.515)" fill="#6900ff"/>
        <path id="Path_235" data-name="Path 235" d="M128.293,14.534c0-.877-1.166-1.458-2.627-1.458s-2.335.582-2.335,1.458,1.169,1.458,2.335,1.458c1.751,0,2.627-.874,2.627-1.458" transform="translate(179.486 19.03)" fill="#6900ff"/>
        <path id="Path_236" data-name="Path 236" d="M128.293,20.953c0-.877-1.166-1.458-2.627-1.458s-2.335.582-2.335,1.458,1.169,1.458,2.335,1.458c1.751,0,2.627-.582,2.627-1.458" transform="translate(179.486 28.372)" fill="#6900ff"/>
        <path id="Path_237" data-name="Path 237" d="M123.331,27.491c0,.877,1.166,1.461,2.335,1.461,1.458,0,2.627-.584,2.627-1.461s-1.169-1.458-2.627-1.458c-1.169,0-2.335.584-2.335,1.458" transform="translate(179.486 37.887)" fill="#6900ff"/>
        <path id="Path_238" data-name="Path 238" d="M121.7,1.458C121.7.582,120.535,0,119.366,0s-2.335.582-2.335,1.458,1.169,1.458,2.335,1.458,2.335-.582,2.335-1.458" transform="translate(170.317 0)" fill="#6900ff"/>
        <path id="Path_239" data-name="Path 239" d="M121.7,8c0-.877-1.166-1.458-2.335-1.458S117.031,7.12,117.031,8s1.169,1.458,2.335,1.458S121.7,8.873,121.7,8" transform="translate(170.317 9.515)" fill="#6900ff"/>
        <path id="Path_240" data-name="Path 240" d="M121.7,14.534c0-.877-1.166-1.458-2.335-1.458s-2.335.582-2.335,1.458,1.169,1.458,2.335,1.458,2.335-.874,2.335-1.458" transform="translate(170.317 19.03)" fill="#6900ff"/>
        <path id="Path_241" data-name="Path 241" d="M121.7,20.953c0-.877-1.166-1.458-2.335-1.458s-2.335.582-2.335,1.458,1.169,1.458,2.335,1.458,2.335-.582,2.335-1.458" transform="translate(170.317 28.372)" fill="#6900ff"/>
        <path id="Path_242" data-name="Path 242" d="M119.247,28.952c1.289,0,2.335-.653,2.335-1.461s-1.046-1.458-2.335-1.458-2.335.653-2.335,1.458,1.046,1.461,2.335,1.461" transform="translate(170.144 37.887)" fill="#6900ff"/>
        <path id="Path_243" data-name="Path 243" d="M115.163,8c0-.877-1.169-1.458-2.335-1.458S110.493,7.12,110.493,8s1.169,1.458,2.335,1.458,2.335-.582,2.335-1.458" transform="translate(160.802 9.515)" fill="#6900ff"/>
        <path id="Path_244" data-name="Path 244" d="M115.163,14.534c0-.877-1.169-1.458-2.335-1.458s-2.335.582-2.335,1.458,1.169,1.458,2.335,1.458,2.335-.874,2.335-1.458" transform="translate(160.802 19.03)" fill="#6900ff"/>
        <path id="Path_245" data-name="Path 245" d="M115.163,20.953c0-.877-1.169-1.458-2.335-1.458s-2.335.582-2.335,1.458,1.169,1.458,2.335,1.458,2.335-.582,2.335-1.458" transform="translate(160.802 28.372)" fill="#6900ff"/>
        <path id="Path_246" data-name="Path 246" d="M112.828,28.952c1.289,0,2.335-.653,2.335-1.461s-1.046-1.458-2.335-1.458-2.335.653-2.335,1.458,1.046,1.461,2.335,1.461" transform="translate(160.802 37.887)" fill="#6900ff"/>
        <path id="Path_247" data-name="Path 247" d="M108.8,14.534c0-.877-1.169-1.458-2.335-1.458-1.458,0-2.627.582-2.627,1.458s1.169,1.458,2.627,1.458,2.335-.874,2.335-1.458" transform="translate(151.114 19.03)" fill="#6900ff"/>
        <path id="Path_248" data-name="Path 248" d="M108.8,20.953c0-.877-1.169-1.458-2.335-1.458-1.458,0-2.627.582-2.627,1.458s1.169,1.458,2.627,1.458,2.335-.582,2.335-1.458" transform="translate(151.114 28.372)" fill="#6900ff"/>
        <path id="Path_249" data-name="Path 249" d="M103.837,27.491c0,.877,1.166,1.461,2.627,1.461s2.333-.584,2.333-1.461-1.166-1.458-2.333-1.458c-1.461,0-2.627.584-2.627,1.458" transform="translate(151.116 37.887)" fill="#6900ff"/>
        <path id="Path_250" data-name="Path 250" d="M102.206,20.953c0-.877-1.166-1.458-2.335-1.458-1.458,0-2.335.582-2.335,1.458s1.169,1.458,2.335,1.458,2.335-.582,2.335-1.458" transform="translate(141.946 28.372)" fill="#6900ff"/>
        <path id="Path_251" data-name="Path 251" d="M97.418,27.491c0,.877,1.166,1.461,2.333,1.461,1.461,0,2.335-.584,2.335-1.461s-1.169-1.458-2.335-1.458c-1.458,0-2.333.584-2.333,1.458" transform="translate(141.774 37.887)" fill="#6900ff"/>
        <path id="Path_252" data-name="Path 252" d="M93.214,28.952c1.458,0,2.335-.584,2.335-1.461s-1.169-1.458-2.335-1.458-2.335.584-2.335,1.458,1.169,1.461,2.335,1.461" transform="translate(132.258 37.887)" fill="#6900ff"/>
      </g>
    </g>
    <path id="Subtraction_3" data-name="Subtraction 3" d="M-1188.951-2821.263h-.157c-1.109-.024-2.256-.577-2.256-1.46,0-.9,1.212-1.459,2.335-1.459s2.336.558,2.336,1.459C-1186.694-2821.841-1187.842-2821.288-1188.951-2821.263Zm-15.741,0h-.176c-1.109-.024-2.256-.577-2.256-1.46,0-.9,1.212-1.459,2.335-1.459s2.335.558,2.335,1.459C-1202.455-2821.848-1203.312-2821.288-1204.692-2821.263Zm-16.052,0h-.177c-1.109-.024-2.255-.577-2.255-1.46,0-.9,1.212-1.459,2.335-1.459,1.522,0,2.627.614,2.627,1.459C-1218.216-2821.9-1219.279-2821.29-1220.745-2821.263Zm-16.053,0h-.177c-1.109-.024-2.256-.577-2.256-1.46,0-.9,1.212-1.459,2.335-1.459,1.523,0,2.628.614,2.628,1.459C-1234.268-2821.9-1235.332-2821.29-1236.8-2821.263Zm-15.777,0h-.162c-1.264-.027-2.255-.668-2.255-1.46s1.048-1.459,2.336-1.459,2.335.655,2.335,1.459S-1251.311-2821.291-1252.575-2821.263Zm-15.761,0h-.162c-1.264-.027-2.255-.668-2.255-1.46s1.048-1.459,2.335-1.459,2.335.655,2.335,1.459S-1267.072-2821.291-1268.336-2821.263Zm-16.037,0h-.2c-1.465-.026-2.529-.64-2.529-1.46,0-.845,1.1-1.459,2.627-1.459,1.123,0,2.335.558,2.335,1.459C-1282.135-2821.848-1282.992-2821.288-1284.373-2821.263Zm-16.052,0h-.176c-1.109-.024-2.256-.577-2.256-1.46,0-.9.895-1.459,2.335-1.459,1.123,0,2.335.558,2.335,1.459C-1298.188-2821.848-1299.045-2821.288-1300.425-2821.263Zm-16.051,0h-.176c-1.109-.024-2.256-.577-2.256-1.46,0-.9,1.212-1.459,2.336-1.459s2.333.558,2.333,1.459C-1314.24-2821.848-1315.1-2821.288-1316.476-2821.263Zm-15.716,0h-.157c-1.109-.024-2.256-.577-2.256-1.46,0-.9,1.212-1.459,2.336-1.459s2.335.558,2.335,1.459C-1329.935-2821.841-1331.083-2821.288-1332.192-2821.263Zm-15.742,0h-.176c-1.109-.024-2.255-.577-2.255-1.46,0-.9,1.212-1.459,2.335-1.459s2.336.558,2.336,1.459C-1345.7-2821.848-1346.553-2821.288-1347.934-2821.263Zm-16.05,0h-.177c-1.109-.024-2.256-.577-2.256-1.46,0-.9,1.212-1.459,2.335-1.459,1.522,0,2.627.614,2.627,1.459C-1361.454-2821.9-1362.518-2821.29-1363.983-2821.263Zm-16.052,0h-.177c-1.109-.024-2.256-.577-2.256-1.46,0-.9,1.212-1.459,2.336-1.459,1.522,0,2.627.614,2.627,1.459C-1377.507-2821.9-1378.57-2821.29-1380.036-2821.263Zm-15.778,0h-.162c-1.264-.027-2.255-.668-2.255-1.46s1.048-1.459,2.335-1.459,2.335.655,2.335,1.459S-1394.55-2821.291-1395.814-2821.263Zm-15.761,0h-.162c-1.264-.027-2.254-.668-2.254-1.46s1.047-1.459,2.335-1.459,2.335.655,2.335,1.459S-1410.311-2821.291-1411.574-2821.263Zm-16.037,0h-.2c-1.465-.026-2.529-.64-2.529-1.46,0-.845,1.1-1.459,2.627-1.459,1.123,0,2.335.558,2.335,1.459C-1425.373-2821.848-1426.231-2821.288-1427.612-2821.263Zm-16.052,0h-.176c-1.109-.024-2.255-.577-2.255-1.46,0-.9.895-1.459,2.335-1.459,1.123,0,2.335.558,2.335,1.459C-1441.427-2821.848-1442.284-2821.288-1443.664-2821.263Zm-16.053,0h-.175c-1.109-.024-2.256-.577-2.256-1.46,0-.9,1.212-1.459,2.335-1.459s2.336.558,2.336,1.459C-1457.479-2821.848-1458.337-2821.288-1459.717-2821.263Zm286.741-16.054c-1.123,0-2.336-.558-2.336-1.459,0-.6,1.208-1.458,2.336-1.458s2.335.557,2.335,1.458S-1171.536-2837.318-1172.976-2837.318Zm-15.761,0c-1.123,0-2.335-.558-2.335-1.459s1.212-1.458,2.335-1.458,2.335.557,2.335,1.458S-1187.614-2837.318-1188.737-2837.318Zm-15.761,0c-1.123,0-2.335-.558-2.335-1.459s.895-1.458,2.335-1.458c1.123,0,2.335.557,2.335,1.458S-1203.375-2837.318-1204.5-2837.318Zm-16.345,0c-1.123,0-2.335-.558-2.335-1.459s.895-1.458,2.335-1.458c1.522,0,2.627.613,2.627,1.458S-1219.321-2837.318-1220.843-2837.318Zm-16.053,0c-1.123,0-2.335-.558-2.335-1.459s.895-1.458,2.335-1.458c1.523,0,2.628.613,2.628,1.458C-1234.268-2837.849-1235.226-2837.318-1236.9-2837.318Zm-15.468,0c-1.123,0-2.335-.558-2.335-1.459s1.212-1.458,2.335-1.458,2.335.557,2.335,1.458S-1251.241-2837.318-1252.364-2837.318Zm-16.052,0c-1.123,0-2.335-.558-2.335-1.459s1.212-1.458,2.335-1.458,2.335.557,2.335,1.458S-1267.294-2837.318-1268.417-2837.318Zm-16.053,0c-1.522,0-2.627-.614-2.627-1.459s1.1-1.458,2.627-1.458c1.123,0,2.335.557,2.335,1.458S-1283.03-2837.318-1284.47-2837.318Zm-15.761,0c-1.123,0-2.335-.558-2.335-1.459s.895-1.458,2.335-1.458c1.123,0,2.336.557,2.336,1.458S-1299.108-2837.318-1300.231-2837.318Zm-15.987,0c-1.123,0-2.335-.558-2.335-1.459,0-.6,1.207-1.458,2.335-1.458s2.336.557,2.336,1.458S-1314.777-2837.318-1316.218-2837.318Zm-15.76,0c-1.123,0-2.335-.558-2.335-1.459s1.212-1.458,2.335-1.458,2.335.557,2.335,1.458S-1330.855-2837.318-1331.978-2837.318Zm-15.761,0c-1.123,0-2.336-.558-2.336-1.459s.895-1.458,2.336-1.458c1.123,0,2.335.557,2.335,1.458S-1346.615-2837.318-1347.738-2837.318Zm-16.345,0c-1.123,0-2.335-.558-2.335-1.459s.895-1.458,2.335-1.458c1.522,0,2.627.613,2.627,1.458S-1362.561-2837.318-1364.083-2837.318Zm-16.053,0c-1.123,0-2.335-.558-2.335-1.459s.895-1.458,2.335-1.458c1.522,0,2.627.613,2.627,1.458C-1377.509-2837.849-1378.467-2837.318-1380.136-2837.318Zm-15.468,0c-1.123,0-2.335-.558-2.335-1.459s1.212-1.458,2.335-1.458,2.335.557,2.335,1.458S-1394.482-2837.318-1395.6-2837.318Zm-16.051,0c-1.123,0-2.335-.558-2.335-1.459s1.212-1.458,2.335-1.458,2.335.557,2.335,1.458S-1410.533-2837.318-1411.655-2837.318Zm-16.053,0c-1.522,0-2.627-.614-2.627-1.459s1.1-1.458,2.627-1.458c1.123,0,2.335.557,2.335,1.458S-1426.268-2837.318-1427.709-2837.318Zm-15.76,0c-1.123,0-2.335-.558-2.335-1.459s.895-1.458,2.335-1.458c1.123,0,2.335.557,2.335,1.458S-1442.346-2837.318-1443.469-2837.318Zm286.545-15.761c-1.123,0-2.335-.558-2.335-1.459s1.212-1.458,2.335-1.458a3.623,3.623,0,0,1,.548.042v2.844A4.8,4.8,0,0,1-1156.924-2853.078Zm-15.76,0c-1.123,0-2.335-.558-2.335-1.459s.895-1.458,2.335-1.458c1.123,0,2.335.557,2.335,1.458C-1170.349-2853.935-1171.557-2853.078-1172.684-2853.078Zm-16.053,0c-1.123,0-2.335-.558-2.335-1.459s1.212-1.458,2.335-1.458,2.335.557,2.335,1.458C-1186.4-2853.935-1187.61-2853.078-1188.737-2853.078Zm-15.761,0c-1.123,0-2.335-.558-2.335-1.459s.895-1.458,2.335-1.458c1.123,0,2.335.557,2.335,1.458C-1202.162-2853.935-1203.37-2853.078-1204.5-2853.078Zm-16.345,0c-1.123,0-2.335-.558-2.335-1.459s.895-1.458,2.335-1.458c1.522,0,2.627.613,2.627,1.458C-1218.216-2853.961-1219.393-2853.078-1220.843-2853.078Zm-16.053,0c-1.123,0-2.335-.558-2.335-1.459s.895-1.458,2.335-1.458c1.523,0,2.628.613,2.628,1.458C-1234.268-2853.926-1235.181-2853.078-1236.9-2853.078Zm-15.468,0c-1.123,0-2.335-.558-2.335-1.459s1.212-1.458,2.335-1.458,2.335.557,2.335,1.458C-1250.029-2853.935-1251.237-2853.078-1252.364-2853.078Zm-16.052,0c-1.123,0-2.335-.558-2.335-1.459s1.212-1.458,2.335-1.458,2.335.557,2.335,1.458C-1266.082-2853.935-1267.29-2853.078-1268.417-2853.078Zm-16.053,0c-1.522,0-2.627-.614-2.627-1.459s1.1-1.458,2.627-1.458c1.123,0,2.335.557,2.335,1.458C-1282.135-2853.928-1283.023-2853.078-1284.47-2853.078Zm-15.694,0c-1.123,0-2.335-.558-2.335-1.459s1.212-1.458,2.335-1.458,2.335.557,2.335,1.458S-1298.724-2853.078-1300.164-2853.078Zm-15.761,0c-1.123,0-2.335-.558-2.335-1.459s.895-1.458,2.335-1.458c1.123,0,2.336.557,2.336,1.458C-1313.59-2853.935-1314.8-2853.078-1315.925-2853.078Zm-16.052,0c-1.123,0-2.335-.558-2.335-1.459s1.212-1.458,2.335-1.458,2.335.557,2.335,1.458C-1329.643-2853.935-1330.85-2853.078-1331.978-2853.078Zm-15.761,0c-1.123,0-2.336-.558-2.336-1.459s.895-1.458,2.336-1.458c1.123,0,2.335.557,2.335,1.458C-1345.4-2853.935-1346.611-2853.078-1347.738-2853.078Zm-16.345,0c-1.123,0-2.335-.558-2.335-1.459s.895-1.458,2.335-1.458c1.522,0,2.627.613,2.627,1.458C-1361.456-2853.961-1362.633-2853.078-1364.083-2853.078Zm-16.053,0c-1.123,0-2.335-.558-2.335-1.459s.895-1.458,2.335-1.458c1.522,0,2.627.613,2.627,1.458C-1377.509-2853.926-1378.422-2853.078-1380.136-2853.078Zm-15.468,0c-1.123,0-2.335-.558-2.335-1.459s1.212-1.458,2.335-1.458,2.335.557,2.335,1.458C-1393.27-2853.935-1394.478-2853.078-1395.6-2853.078Zm-16.051,0c-1.123,0-2.335-.558-2.335-1.459s1.212-1.458,2.335-1.458,2.335.557,2.335,1.458C-1409.321-2853.935-1410.528-2853.078-1411.655-2853.078Zm-16.053,0c-1.522,0-2.627-.614-2.627-1.459s1.1-1.458,2.627-1.458c1.123,0,2.335.557,2.335,1.458C-1425.373-2853.928-1426.262-2853.078-1427.709-2853.078Zm271.075-16.051c-1.123,0-2.335-.558-2.335-1.459s.895-1.458,2.335-1.458c.086,0,.173,0,.258.01v2.9C-1156.466-2869.132-1156.552-2869.129-1156.634-2869.129Zm-16.05,0c-1.123,0-2.335-.558-2.335-1.459s.895-1.458,2.335-1.458c1.123,0,2.335.557,2.335,1.458S-1171.561-2869.129-1172.684-2869.129Zm-16.053,0c-1.123,0-2.335-.558-2.335-1.459s1.212-1.458,2.335-1.458,2.335.557,2.335,1.458S-1187.614-2869.129-1188.737-2869.129Zm-15.761,0c-1.123,0-2.335-.558-2.335-1.459s.895-1.458,2.335-1.458c1.123,0,2.335.557,2.335,1.458S-1203.375-2869.129-1204.5-2869.129Zm-16.345,0c-1.123,0-2.335-.558-2.335-1.459s.895-1.458,2.335-1.458c1.522,0,2.627.613,2.627,1.458S-1219.321-2869.129-1220.843-2869.129Zm-16.053,0c-1.123,0-2.335-.558-2.335-1.459s.895-1.458,2.335-1.458c1.523,0,2.628.613,2.628,1.458C-1234.268-2869.661-1235.226-2869.129-1236.9-2869.129Zm-15.468,0c-1.123,0-2.335-.558-2.335-1.459s1.212-1.458,2.335-1.458,2.335.557,2.335,1.458S-1251.241-2869.129-1252.364-2869.129Zm-16.052,0c-1.123,0-2.335-.558-2.335-1.459s1.212-1.458,2.335-1.458,2.335.557,2.335,1.458S-1267.294-2869.129-1268.417-2869.129Zm-15.7,0c-1.522,0-2.627-.614-2.627-1.459s1.1-1.458,2.627-1.458c1.123,0,2.335.557,2.335,1.458S-1282.671-2869.129-1284.112-2869.129Zm-15.76,0c-1.123,0-2.335-.558-2.335-1.459s.895-1.458,2.335-1.458c1.123,0,2.335.557,2.335,1.458S-1298.749-2869.129-1299.872-2869.129Zm-16.053,0c-1.123,0-2.335-.558-2.335-1.459s.895-1.458,2.335-1.458c1.123,0,2.336.557,2.336,1.458S-1314.8-2869.129-1315.925-2869.129Zm-16.052,0c-1.123,0-2.335-.558-2.335-1.459s1.212-1.458,2.335-1.458,2.335.557,2.335,1.458S-1330.855-2869.129-1331.978-2869.129Zm-15.761,0c-1.123,0-2.336-.558-2.336-1.459s.895-1.458,2.336-1.458c1.123,0,2.335.557,2.335,1.458S-1346.615-2869.129-1347.738-2869.129Zm-16.345,0c-1.123,0-2.335-.558-2.335-1.459s.895-1.458,2.335-1.458c1.522,0,2.627.613,2.627,1.458S-1362.561-2869.129-1364.083-2869.129Zm-16.053,0c-1.123,0-2.335-.558-2.335-1.459s.895-1.458,2.335-1.458c1.522,0,2.627.613,2.627,1.458C-1377.509-2869.661-1378.467-2869.129-1380.136-2869.129Zm-15.468,0c-1.123,0-2.335-.558-2.335-1.459s1.212-1.458,2.335-1.458,2.335.557,2.335,1.458S-1394.482-2869.129-1395.6-2869.129Zm-16.051,0c-1.123,0-2.335-.558-2.335-1.459s1.212-1.458,2.335-1.458,2.335.557,2.335,1.458S-1410.533-2869.129-1411.655-2869.129Zm255.021-16.055c-1.123,0-2.335-.558-2.335-1.459s.895-1.458,2.335-1.458c.083,0,.17,0,.258.01v2.9C-1156.466-2885.187-1156.553-2885.184-1156.634-2885.184Zm-16.05,0c-1.123,0-2.335-.558-2.335-1.459s.895-1.458,2.335-1.458c1.123,0,2.335.557,2.335,1.458S-1171.561-2885.184-1172.684-2885.184Zm-16.053,0c-1.123,0-2.335-.558-2.335-1.459s1.212-1.458,2.335-1.458,2.335.557,2.335,1.458S-1187.614-2885.184-1188.737-2885.184Zm-15.761,0c-1.123,0-2.335-.558-2.335-1.459s.895-1.458,2.335-1.458c1.123,0,2.335.557,2.335,1.458S-1203.375-2885.184-1204.5-2885.184Zm-16.345,0c-1.123,0-2.335-.558-2.335-1.459s.895-1.458,2.335-1.458c1.522,0,2.627.613,2.627,1.458S-1219.321-2885.184-1220.843-2885.184Zm-16.053,0c-1.123,0-2.335-.558-2.335-1.459s.895-1.458,2.335-1.458c1.523,0,2.628.613,2.628,1.458C-1234.268-2885.716-1235.226-2885.184-1236.9-2885.184Zm-15.468,0c-1.123,0-2.335-.558-2.335-1.459s1.212-1.458,2.335-1.458,2.335.557,2.335,1.458S-1251.241-2885.184-1252.364-2885.184Zm-15.987,0c-1.123,0-2.335-.558-2.335-1.459,0-.6,1.207-1.458,2.335-1.458s2.335.557,2.335,1.458S-1267.228-2885.184-1268.351-2885.184Zm-15.761,0c-1.522,0-2.627-.614-2.627-1.459s1.1-1.458,2.627-1.458c1.123,0,2.335.557,2.335,1.458S-1282.671-2885.184-1284.112-2885.184Zm-15.76,0c-1.123,0-2.335-.558-2.335-1.459s.895-1.458,2.335-1.458c1.123,0,2.335.557,2.335,1.458S-1298.749-2885.184-1299.872-2885.184Zm-16.053,0c-1.123,0-2.335-.558-2.335-1.459s.895-1.458,2.335-1.458c1.123,0,2.336.557,2.336,1.458S-1314.8-2885.184-1315.925-2885.184Zm-16.052,0c-1.123,0-2.335-.558-2.335-1.459s1.212-1.458,2.335-1.458,2.335.557,2.335,1.458S-1330.855-2885.184-1331.978-2885.184Zm-15.761,0c-1.123,0-2.336-.558-2.336-1.459s.895-1.458,2.336-1.458c1.123,0,2.335.557,2.335,1.458S-1346.615-2885.184-1347.738-2885.184Zm-16.345,0c-1.123,0-2.335-.558-2.335-1.459s.895-1.458,2.335-1.458c1.522,0,2.627.613,2.627,1.458S-1362.561-2885.184-1364.083-2885.184Zm-16.053,0c-1.123,0-2.335-.558-2.335-1.459s.895-1.458,2.335-1.458c1.522,0,2.627.613,2.627,1.458C-1377.509-2885.716-1378.467-2885.184-1380.136-2885.184Zm-15.468,0c-1.123,0-2.335-.558-2.335-1.459s1.212-1.458,2.335-1.458,2.335.557,2.335,1.458S-1394.482-2885.184-1395.6-2885.184ZM-1157-2901.161c-1.123,0-2.335-.559-2.335-1.462s1.212-1.458,2.335-1.458a5.1,5.1,0,0,1,.621.037v2.846A5.152,5.152,0,0,1-1157-2901.161Zm-15.761,0c-1.288,0-2.336-.656-2.336-1.462s1.048-1.458,2.336-1.458,2.335.654,2.335,1.458S-1171.47-2901.161-1172.758-2901.161Zm-15.761,0c-1.288,0-2.335-.656-2.335-1.462s1.048-1.458,2.335-1.458,2.335.654,2.335,1.458S-1187.231-2901.161-1188.518-2901.161Zm-16.051,0c-1.522,0-2.627-.615-2.627-1.462s1.1-1.458,2.627-1.458c1.122,0,2.333.557,2.333,1.458S-1203.152-2901.161-1204.569-2901.161Zm-16.055,0c-1.122,0-2.333-.559-2.333-1.462s.894-1.458,2.333-1.458c1.123,0,2.335.557,2.335,1.458S-1219.184-2901.161-1220.624-2901.161Zm-16.053,0c-1.123,0-2.335-.559-2.335-1.462s1.212-1.458,2.335-1.458,2.336.557,2.336,1.458S-1235.237-2901.161-1236.677-2901.161Zm-15.691,0c-1.123,0-2.336-.559-2.336-1.462s1.212-1.458,2.336-1.458,2.335.557,2.335,1.458S-1251.246-2901.161-1252.369-2901.161Zm-15.764,0c-1.123,0-2.335-.559-2.335-1.462s1.212-1.458,2.335-1.458,2.336.557,2.336,1.458S-1266.692-2901.161-1268.132-2901.161Zm-16.051,0c-1.123,0-2.335-.559-2.335-1.462s1.212-1.458,2.335-1.458c1.522,0,2.627.613,2.627,1.458S-1282.661-2901.161-1284.183-2901.161Zm-16.052,0c-1.123,0-2.335-.559-2.335-1.462s1.212-1.458,2.335-1.458c1.522,0,2.627.613,2.627,1.458S-1298.713-2901.161-1300.235-2901.161Zm-15.761,0c-1.287,0-2.335-.656-2.335-1.462s1.047-1.458,2.335-1.458,2.335.654,2.335,1.458S-1314.709-2901.161-1316-2901.161Zm-15.761,0c-1.287,0-2.335-.656-2.335-1.462s1.047-1.458,2.335-1.458,2.336.654,2.336,1.458S-1330.469-2901.161-1331.757-2901.161Zm-16.052,0c-1.523,0-2.628-.615-2.628-1.462s1.105-1.458,2.628-1.458c1.123,0,2.335.557,2.335,1.458S-1346.369-2901.161-1347.809-2901.161Zm-16.053,0c-1.123,0-2.335-.559-2.335-1.462,0-.886.916-1.458,2.335-1.458,1.123,0,2.336.557,2.336,1.458S-1362.422-2901.161-1363.863-2901.161Zm-16.052,0c-1.123,0-2.335-.559-2.335-1.462s1.212-1.458,2.335-1.458,2.335.557,2.335,1.458S-1378.475-2901.161-1379.915-2901.161ZM-1157-2917.217c-1.123,0-2.335-.557-2.335-1.458s.895-1.459,2.335-1.459a5.17,5.17,0,0,1,.621.037v2.853C-1156.574-2917.226-1156.783-2917.217-1157-2917.217Zm-15.469,0c-1.123,0-2.335-.557-2.335-1.458s1.212-1.459,2.335-1.459,2.336.558,2.336,1.459S-1171.343-2917.217-1172.466-2917.217Zm-16.052,0c-1.123,0-2.335-.557-2.335-1.458s1.212-1.459,2.335-1.459,2.335.558,2.335,1.459S-1187.4-2917.217-1188.518-2917.217Zm-16.053,0c-1.522,0-2.627-.613-2.627-1.458s1.1-1.459,2.627-1.459c1.123,0,2.336.558,2.336,1.459S-1203.131-2917.217-1204.572-2917.217Zm-15.761,0c-1.123,0-2.335-.557-2.335-1.458s.895-1.459,2.335-1.459c1.123,0,2.335.558,2.335,1.459S-1219.209-2917.217-1220.333-2917.217Zm-15.986,0c-1.123,0-2.335-.557-2.335-1.458,0-.6,1.208-1.459,2.335-1.459s2.335.558,2.335,1.459S-1234.878-2917.217-1236.318-2917.217Zm-15.761,0c-1.123,0-2.336-.557-2.336-1.458s1.212-1.459,2.336-1.459,2.335.558,2.335,1.459S-1250.956-2917.217-1252.079-2917.217Zm-15.761,0c-1.123,0-2.335-.557-2.335-1.458s.895-1.459,2.335-1.459c1.123,0,2.335.558,2.335,1.459S-1266.717-2917.217-1267.84-2917.217Zm-16.345,0c-1.123,0-2.336-.557-2.336-1.458s.895-1.459,2.336-1.459c1.522,0,2.627.614,2.627,1.459S-1282.663-2917.217-1284.185-2917.217Zm-16.051,0c-1.123,0-2.335-.557-2.335-1.458s.895-1.459,2.335-1.459c1.522,0,2.627.614,2.627,1.459C-1297.608-2917.748-1298.566-2917.217-1300.235-2917.217Zm-15.468,0c-1.123,0-2.335-.557-2.335-1.458s1.212-1.459,2.335-1.459,2.335.558,2.335,1.459S-1314.581-2917.217-1315.7-2917.217Zm-16.053,0c-1.123,0-2.335-.557-2.335-1.458s1.212-1.459,2.335-1.459,2.336.558,2.336,1.459S-1330.634-2917.217-1331.757-2917.217Zm-16.052,0c-1.523,0-2.628-.613-2.628-1.458s1.105-1.459,2.628-1.459c1.123,0,2.335.558,2.335,1.459S-1346.369-2917.217-1347.809-2917.217Zm-15.761,0c-1.123,0-2.336-.557-2.336-1.458s.895-1.459,2.336-1.459c1.123,0,2.335.558,2.335,1.459S-1362.447-2917.217-1363.57-2917.217Zm206.573-15.76c-1.123,0-2.335-.558-2.335-1.459s.895-1.458,2.335-1.458a5.17,5.17,0,0,1,.621.037v2.841A4.753,4.753,0,0,1-1157-2932.977Zm-15.469,0c-1.123,0-2.335-.558-2.335-1.459s1.212-1.458,2.335-1.458,2.336.557,2.336,1.458C-1170.13-2933.833-1171.338-2932.977-1172.466-2932.977Zm-16.052,0c-1.123,0-2.335-.558-2.335-1.459s1.212-1.458,2.335-1.458,2.335.557,2.335,1.458C-1186.184-2933.833-1187.391-2932.977-1188.518-2932.977Zm-16.053,0c-1.522,0-2.627-.614-2.627-1.459s1.1-1.458,2.627-1.458c1.123,0,2.336.557,2.336,1.458C-1202.236-2933.841-1203.146-2932.977-1204.572-2932.977Zm-15.694,0c-1.123,0-2.335-.558-2.335-1.459s1.212-1.458,2.335-1.458,2.335.557,2.335,1.458S-1218.825-2932.977-1220.266-2932.977Zm-15.761,0c-1.123,0-2.335-.558-2.335-1.459s.895-1.458,2.335-1.458c1.123,0,2.335.557,2.335,1.458C-1233.691-2933.833-1234.9-2932.977-1236.027-2932.977Zm-16.052,0c-1.123,0-2.336-.558-2.336-1.459s1.212-1.458,2.336-1.458,2.335.557,2.335,1.458C-1249.745-2933.833-1250.952-2932.977-1252.079-2932.977Zm-15.761,0c-1.123,0-2.335-.558-2.335-1.459s.895-1.458,2.335-1.458c1.123,0,2.335.557,2.335,1.458C-1265.505-2933.833-1266.713-2932.977-1267.84-2932.977Zm-16.345,0c-1.123,0-2.336-.558-2.336-1.459s.895-1.458,2.336-1.458c1.522,0,2.627.613,2.627,1.458C-1281.558-2933.86-1282.735-2932.977-1284.185-2932.977Zm-16.051,0c-1.123,0-2.335-.558-2.335-1.459s.895-1.458,2.335-1.458c1.522,0,2.627.613,2.627,1.458C-1297.608-2933.824-1298.521-2932.977-1300.235-2932.977Zm-15.468,0c-1.123,0-2.335-.558-2.335-1.459s1.212-1.458,2.335-1.458,2.335.557,2.335,1.458C-1313.369-2933.833-1314.577-2932.977-1315.7-2932.977Zm-16.053,0c-1.123,0-2.335-.558-2.335-1.459s1.212-1.458,2.335-1.458,2.336.557,2.336,1.458C-1329.422-2933.833-1330.629-2932.977-1331.757-2932.977Zm-16.052,0c-1.523,0-2.628-.614-2.628-1.459s1.105-1.458,2.628-1.458c1.123,0,2.335.557,2.335,1.458C-1345.475-2933.841-1346.384-2932.977-1347.809-2932.977ZM-1157-2949.03c-1.123,0-2.335-.557-2.335-1.458s.895-1.459,2.335-1.459a5.192,5.192,0,0,1,.621.037v2.853C-1156.574-2949.039-1156.783-2949.03-1157-2949.03Zm-15.469,0c-1.123,0-2.335-.557-2.335-1.458s1.212-1.459,2.335-1.459,2.336.558,2.336,1.459S-1171.343-2949.03-1172.466-2949.03Zm-16.052,0c-1.123,0-2.335-.557-2.335-1.458s1.212-1.459,2.335-1.459,2.335.558,2.335,1.459S-1187.4-2949.03-1188.518-2949.03Zm-15.694,0c-1.522,0-2.627-.613-2.627-1.458s1.1-1.459,2.627-1.459c1.123,0,2.335.558,2.335,1.459S-1202.773-2949.03-1204.213-2949.03Zm-15.761,0c-1.123,0-2.336-.557-2.336-1.458s.895-1.459,2.336-1.459c1.123,0,2.335.558,2.335,1.459S-1218.851-2949.03-1219.973-2949.03Zm-16.053,0c-1.123,0-2.335-.557-2.335-1.458s.895-1.459,2.335-1.459c1.123,0,2.335.558,2.335,1.459S-1234.9-2949.03-1236.027-2949.03Zm-16.052,0c-1.123,0-2.336-.557-2.336-1.458s1.212-1.459,2.336-1.459,2.335.558,2.335,1.459S-1250.956-2949.03-1252.079-2949.03Zm-15.761,0c-1.123,0-2.335-.557-2.335-1.458s.895-1.459,2.335-1.459c1.123,0,2.335.558,2.335,1.459S-1266.717-2949.03-1267.84-2949.03Zm-16.345,0c-1.123,0-2.336-.557-2.336-1.458s.895-1.459,2.336-1.459c1.522,0,2.627.614,2.627,1.459S-1282.663-2949.03-1284.185-2949.03Zm-16.051,0c-1.123,0-2.335-.557-2.335-1.458s.895-1.459,2.335-1.459c1.522,0,2.627.614,2.627,1.459C-1297.608-2949.562-1298.566-2949.03-1300.235-2949.03Zm-15.468,0c-1.123,0-2.335-.557-2.335-1.458s1.212-1.459,2.335-1.459,2.335.558,2.335,1.459S-1314.581-2949.03-1315.7-2949.03Zm-16.053,0c-1.123,0-2.335-.557-2.335-1.458s1.212-1.459,2.335-1.459,2.336.558,2.336,1.459S-1330.634-2949.03-1331.757-2949.03Zm174.76-16.052c-1.123,0-2.335-.558-2.335-1.459s.895-1.458,2.335-1.458a5.124,5.124,0,0,1,.621.037v2.853C-1156.574-2965.091-1156.782-2965.083-1157-2965.083Zm-15.469,0c-1.123,0-2.335-.558-2.335-1.459s1.212-1.458,2.335-1.458,2.336.557,2.336,1.458S-1171.343-2965.083-1172.466-2965.083Zm-15.987,0c-1.123,0-2.335-.558-2.335-1.459,0-.6,1.207-1.458,2.335-1.458s2.336.557,2.336,1.458S-1187.329-2965.083-1188.453-2965.083Zm-15.76,0c-1.522,0-2.627-.614-2.627-1.459s1.1-1.458,2.627-1.458c1.123,0,2.335.557,2.335,1.458S-1202.773-2965.083-1204.213-2965.083Zm-15.761,0c-1.123,0-2.336-.558-2.336-1.459s.895-1.458,2.336-1.458c1.123,0,2.335.557,2.335,1.458S-1218.851-2965.083-1219.973-2965.083Zm-16.053,0c-1.123,0-2.335-.558-2.335-1.459s.895-1.458,2.335-1.458c1.123,0,2.335.557,2.335,1.458S-1234.9-2965.083-1236.027-2965.083Zm-16.052,0c-1.123,0-2.336-.558-2.336-1.459s1.212-1.458,2.336-1.458,2.335.557,2.335,1.458S-1250.956-2965.083-1252.079-2965.083Zm-15.761,0c-1.123,0-2.335-.558-2.335-1.459s.895-1.458,2.335-1.458c1.123,0,2.335.557,2.335,1.458S-1266.717-2965.083-1267.84-2965.083Zm-16.345,0c-1.123,0-2.336-.558-2.336-1.459s.895-1.458,2.336-1.458c1.522,0,2.627.613,2.627,1.458S-1282.663-2965.083-1284.185-2965.083Zm-16.051,0c-1.123,0-2.335-.558-2.335-1.459s.895-1.458,2.335-1.458c1.522,0,2.627.613,2.627,1.458C-1297.608-2965.614-1298.566-2965.083-1300.235-2965.083Zm-15.468,0c-1.123,0-2.335-.558-2.335-1.459s1.212-1.458,2.335-1.458,2.335.557,2.335,1.458S-1314.581-2965.083-1315.7-2965.083Z" transform="translate(1614.728 2968)" fill="#6900ff" stroke="rgba(0,0,0,0)" stroke-miterlimit="10" stroke-width="1"/>
  </g>
</svg>
